<?xml version="1.0" standalone="no"?>
<!DOCTYPE svg PUBLIC "-//W3C//DTD SVG 20010904//EN"
 "http://www.w3.org/TR/2001/REC-SVG-20010904/DTD/svg10.dtd">
<svg version="1.0" xmlns="http://www.w3.org/2000/svg"
 width="700.000000pt" height="700.000000pt" viewBox="0 0 700.000000 700.000000"
 preserveAspectRatio="xMidYMid meet">
<metadata>
Created by potrace 1.14, written by Peter Selinger 2001-2017
</metadata>
<g transform="translate(0.000000,700.000000) scale(0.100000,-0.100000)"
fill="#000000" stroke="none">
<path d="M1750 6216 c-112 -31 -192 -96 -238 -194 l-27 -57 -3 -1630 c-2
-1131 0 -1664 8 -1740 41 -414 198 -794 456 -1105 268 -322 625 -548 1030
-651 313 -79 697 -80 1014 -2 262 64 558 206 746 359 l41 33 6 -87 c10 -164
70 -262 197 -325 120 -60 242 -58 363 6 69 36 111 81 146 157 l26 55 0 1010 0
1010 -23 130 c-74 410 -275 817 -540 1096 -383 402 -909 606 -1452 560 -313
-26 -547 -100 -805 -254 -138 -82 -243 -166 -368 -296 -54 -55 -100 -101 -103
-101 -2 0 -4 395 -4 878 l0 877 -24 57 c-13 31 -37 74 -55 96 -83 105 -252
156 -391 118z m1925 -2308 c243 -37 479 -182 637 -392 331 -439 297 -1109 -76
-1495 -171 -177 -363 -278 -595 -311 -103 -16 -301 -8 -394 14 -465 112 -778
511 -804 1027 -17 334 89 636 302 858 244 254 559 356 930 299z"/>
</g>
</svg>
