<svg width="101" height="101" viewBox="0 0 101 101" fill="none" xmlns="http://www.w3.org/2000/svg">
<path d="M38.0794 16.7481C38.0794 12.1458 41.8104 8.41479 46.4128 8.41479C51.0151 8.41479 54.7461 12.1458 54.7461 16.7481V25.0815H75.5794V45.9148H83.9128C88.5151 45.9148 92.2461 49.6457 92.2461 54.2481C92.2461 58.8505 88.5151 62.5815 83.9128 62.5815H75.5794V83.4148H54.7461V75.0815C54.7461 70.4791 51.0151 66.7481 46.4128 66.7481C41.8104 66.7481 38.0794 70.4791 38.0794 75.0815V83.4148H17.2461V62.5815H25.5794C30.1818 62.5815 33.9128 58.8505 33.9128 54.2481C33.9128 49.6457 30.1818 45.9148 25.5794 45.9148H17.2461V25.0815H38.0794V16.7481Z" stroke="white" stroke-width="3"/>
</svg>
