<svg width="30" height="31" viewBox="0 0 30 31" fill="none" xmlns="http://www.w3.org/2000/svg">
<path d="M21.25 2.63672H8.75C5.29822 2.63672 2.5 5.43494 2.5 8.88672V21.3867C2.5 24.8385 5.29822 27.6367 8.75 27.6367H21.25C24.7018 27.6367 27.5 24.8385 27.5 21.3867V8.88672C27.5 5.43494 24.7018 2.63672 21.25 2.63672Z" fill="#252525" stroke="white" stroke-width="2" stroke-linecap="round" stroke-linejoin="round"/>
<path d="M20.0001 14.3491C20.1544 15.3894 19.9767 16.4519 19.4923 17.3854C19.0079 18.3189 18.2416 19.0759 17.3022 19.5487C16.3628 20.0215 15.2982 20.1861 14.2599 20.019C13.2215 19.8519 12.2623 19.3617 11.5187 18.6181C10.775 17.8744 10.2848 16.9152 10.1177 15.8769C9.95063 14.8385 10.1152 13.774 10.588 12.8346C11.0609 11.8952 11.8179 11.1288 12.7514 10.6444C13.6849 10.16 14.7473 9.98234 15.7876 10.1366C16.8488 10.294 17.8312 10.7884 18.5897 11.547C19.3483 12.3055 19.8428 13.288 20.0001 14.3491Z" fill="#252525" stroke="white" stroke-width="2" stroke-linecap="round" stroke-linejoin="round"/>
<path d="M21.875 8.26172H21.887" stroke="white" stroke-width="2" stroke-linecap="round" stroke-linejoin="round"/>
</svg>
