<svg width="25" height="26" viewBox="0 0 25 26" fill="none" xmlns="http://www.w3.org/2000/svg">
<path d="M12.5049 7.30664C9.39941 7.30664 6.89453 9.81152 6.89453 12.917C6.89453 16.0225 9.39941 18.5273 12.5049 18.5273C15.6104 18.5273 18.1152 16.0225 18.1152 12.917C18.1152 9.81152 15.6104 7.30664 12.5049 7.30664ZM12.5049 16.5645C10.498 16.5645 8.85742 14.9287 8.85742 12.917C8.85742 10.9053 10.4932 9.26953 12.5049 9.26953C14.5166 9.26953 16.1523 10.9053 16.1523 12.917C16.1523 14.9287 14.5117 16.5645 12.5049 16.5645ZM19.6533 7.07715C19.6533 7.80469 19.0674 8.38574 18.3447 8.38574C17.6172 8.38574 17.0361 7.7998 17.0361 7.07715C17.0361 6.35449 17.6221 5.76855 18.3447 5.76855C19.0674 5.76855 19.6533 6.35449 19.6533 7.07715ZM23.3691 8.40527C23.2861 6.65234 22.8857 5.09961 21.6016 3.82031C20.3223 2.54102 18.7695 2.14062 17.0166 2.05273C15.21 1.9502 9.79492 1.9502 7.98828 2.05273C6.24023 2.13574 4.6875 2.53613 3.40332 3.81543C2.11914 5.09473 1.72363 6.64746 1.63574 8.40039C1.5332 10.207 1.5332 15.6221 1.63574 17.4287C1.71875 19.1816 2.11914 20.7344 3.40332 22.0137C4.6875 23.293 6.23535 23.6934 7.98828 23.7812C9.79492 23.8838 15.21 23.8838 17.0166 23.7812C18.7695 23.6982 20.3223 23.2979 21.6016 22.0137C22.8809 20.7344 23.2812 19.1816 23.3691 17.4287C23.4717 15.6221 23.4717 10.2119 23.3691 8.40527ZM21.0352 19.3672C20.6543 20.3242 19.917 21.0615 18.9551 21.4473C17.5146 22.0186 14.0967 21.8867 12.5049 21.8867C10.9131 21.8867 7.49023 22.0137 6.05469 21.4473C5.09766 21.0664 4.36035 20.3291 3.97461 19.3672C3.40332 17.9268 3.53516 14.5088 3.53516 12.917C3.53516 11.3252 3.4082 7.90234 3.97461 6.4668C4.35547 5.50977 5.09277 4.77246 6.05469 4.38672C7.49512 3.81543 10.9131 3.94727 12.5049 3.94727C14.0967 3.94727 17.5195 3.82031 18.9551 4.38672C19.9121 4.76758 20.6494 5.50488 21.0352 6.4668C21.6064 7.90723 21.4746 11.3252 21.4746 12.917C21.4746 14.5088 21.6064 17.9316 21.0352 19.3672Z" fill="black"/>
</svg>
