<svg width="40" height="40" viewBox="0 0 40 40" fill="none" xmlns="http://www.w3.org/2000/svg">
<circle cx="20" cy="20" r="19.5" fill="white" stroke="#252525"/>
<path d="M15.1996 14V16M15.1996 16C14.316 16 13.5996 16.7163 13.5996 17.6C13.5996 18.4837 14.316 19.2 15.1996 19.2M15.1996 16C16.0833 16 16.7996 16.7163 16.7996 17.6C16.7996 18.4837 16.0833 19.2 15.1996 19.2M15.1996 19.2V26M19.9996 14V20.8M19.9996 20.8C19.116 20.8 18.3996 21.5163 18.3996 22.4C18.3996 23.2837 19.116 24 19.9996 24M19.9996 20.8C20.8833 20.8 21.5996 21.5163 21.5996 22.4C21.5996 23.2837 20.8833 24 19.9996 24M19.9996 24V26M24.7996 14V16M24.7996 16C23.916 16 23.1996 16.7163 23.1996 17.6C23.1996 18.4837 23.916 19.2 24.7996 19.2M24.7996 16C25.6833 16 26.3996 16.7163 26.3996 17.6C26.3996 18.4837 25.6833 19.2 24.7996 19.2M24.7996 19.2V26" stroke="#121923"/>
</svg>
