<svg width="159" height="35" viewBox="0 0 159 35" fill="none" xmlns="http://www.w3.org/2000/svg">
<path d="M103.918 34.7224L105.036 32.2723L103.046 28.1523H104.299L105.635 31.1122L106.887 28.1523H108.063L105.104 34.7224H103.918ZM87.612 32.2876C87.169 31.7952 86.9222 31.1572 86.9187 30.4948C86.9152 29.8323 87.1551 29.1917 87.5929 28.6946C88.0217 28.2578 88.6062 28.0089 89.2182 28.0027C89.8302 27.9964 90.4197 28.2332 90.8573 28.6612C91.2778 29.1529 91.4934 29.7873 91.4596 30.4334C91.468 30.5525 91.4584 30.6723 91.431 30.7885H88.0272C88.0292 30.953 88.0645 31.1153 88.1311 31.2657C88.1978 31.416 88.2943 31.5513 88.4148 31.6632C88.6526 31.8906 88.9706 32.0148 89.2996 32.0088C89.5587 32.0306 89.8174 31.9609 90.0305 31.8118C90.2436 31.6626 90.3977 31.4435 90.466 31.1924L91.4033 31.4903C91.2725 31.9153 91.0093 32.2873 90.6521 32.5521C90.2607 32.8388 89.7845 32.986 89.2996 32.9703C88.9868 32.9763 88.676 32.9189 88.386 32.8016C88.096 32.6843 87.8327 32.5094 87.612 32.2876ZM88.3909 29.2475C88.194 29.4397 88.0748 29.6976 88.0559 29.9722H90.3419C90.3364 29.6948 90.2251 29.4301 90.0307 29.2322C89.919 29.1282 89.7872 29.0481 89.6434 28.9968C89.4996 28.9456 89.3469 28.9243 89.1946 28.9343C89.0459 28.9287 88.8977 28.954 88.7593 29.0087C88.621 29.0635 88.4955 29.1464 88.3909 29.2523V29.2475ZM73.7299 32.5559C73.5919 32.4299 73.4818 32.2763 73.4069 32.1051C73.3319 31.9339 73.2936 31.7488 73.2946 31.5619C73.2871 31.3843 73.3178 31.2071 73.3846 31.0424C73.4515 30.8777 73.5529 30.7292 73.6821 30.6071C73.9672 30.3547 74.3225 30.1954 74.7006 30.1507L75.8956 29.9684C76.1256 29.9359 76.2402 29.8242 76.2402 29.6323C76.2435 29.5358 76.2256 29.4397 76.1876 29.351C76.1497 29.2622 76.0927 29.1828 76.0206 29.1186C75.8323 28.9738 75.597 28.9037 75.3601 28.9219C75.2418 28.9137 75.123 28.9292 75.0107 28.9674C74.8984 29.0057 74.7948 29.0658 74.706 29.1445C74.6172 29.2231 74.5449 29.3186 74.4933 29.4255C74.4417 29.5324 74.4119 29.6484 74.4056 29.7669L73.392 29.5368C73.415 29.3255 73.4802 29.121 73.5837 28.9353C73.6871 28.7497 73.8267 28.5867 73.9943 28.4559C74.3783 28.1486 74.8601 27.99 75.3515 28.0091C75.621 27.9866 75.8922 28.0185 76.1491 28.1028C76.406 28.1871 76.6434 28.3221 76.8472 28.4999C77.0082 28.6661 77.134 28.8632 77.217 29.0793C77.3 29.2954 77.3385 29.526 77.3302 29.7574V32.0823C77.3257 32.3331 77.3448 32.5837 77.3875 32.8309H76.3538C76.3122 32.6355 76.2962 32.4355 76.306 32.236C76.1643 32.4348 75.9828 32.6019 75.7732 32.727C75.5635 32.852 75.3302 32.9322 75.088 32.9624C74.8458 32.9926 74.6 32.9723 74.3661 32.9027C74.1321 32.833 73.9152 32.7156 73.7289 32.5578L73.7299 32.5559ZM75.0251 30.8602C74.6108 30.9308 74.4037 31.1421 74.4037 31.4941C74.4024 31.5742 74.4179 31.6536 74.4491 31.7272C74.4803 31.8009 74.5267 31.8672 74.5851 31.9219C74.6518 31.9823 74.7299 32.0288 74.8148 32.0588C74.8997 32.0888 74.9896 32.1017 75.0795 32.0966C75.3843 32.1095 75.6828 32.0073 75.9156 31.8102C76.0323 31.6876 76.1212 31.5414 76.1764 31.3814C76.2315 31.2215 76.2517 31.0515 76.2354 30.8831V30.6721L75.0251 30.8602ZM67.3328 32.2628C66.8889 31.7781 66.6419 31.1451 66.6401 30.4877C66.6383 29.8304 66.882 29.196 67.3233 28.709C67.5419 28.4804 67.8057 28.3 68.0979 28.1791C68.3901 28.0583 68.7043 27.9997 69.0204 28.0072C69.532 27.9851 70.0348 28.1452 70.4397 28.4588C70.7887 28.7336 71.0387 29.1147 71.1518 29.5444L70.1572 29.9092C70.0967 29.6714 69.9688 29.4561 69.7887 29.2895C69.577 29.1086 69.303 29.0175 69.0251 29.0355C68.8549 29.0327 68.6859 29.0659 68.5294 29.1328C68.3728 29.1998 68.2321 29.299 68.1165 29.4241C67.9875 29.5679 67.8882 29.7356 67.8241 29.9178C67.7601 30.1 67.7326 30.293 67.7433 30.4859C67.733 30.6815 67.7614 30.8773 67.8269 31.062C67.8924 31.2466 67.9938 31.4165 68.1251 31.5619C68.2425 31.6889 68.3854 31.7897 68.5445 31.8576C68.7035 31.9256 68.8751 31.9592 69.048 31.9563C69.3319 31.9705 69.6104 31.876 69.8269 31.6918C70.011 31.5329 70.1455 31.3244 70.2144 31.0912L71.1899 31.4464C71.0568 31.8714 70.7987 32.2464 70.4492 32.5225C70.0508 32.8343 69.5545 32.9943 69.049 32.9741C68.7294 32.9812 68.4118 32.9216 68.1165 32.7992C67.8212 32.6767 67.5536 32.494 67.3328 32.2628ZM60.6409 32.5559C60.5029 32.4299 60.3928 32.2763 60.3179 32.1051C60.2429 31.9339 60.2047 31.7488 60.2056 31.5619C60.1981 31.3843 60.2288 31.2071 60.2956 31.0424C60.3625 30.8777 60.464 30.7292 60.5931 30.6071C60.8778 30.3548 61.2329 30.1955 61.6106 30.1507L62.8057 29.9684C63.0347 29.9365 63.1496 29.8245 63.1502 29.6323C63.1535 29.5357 63.1354 29.4396 63.0973 29.3508C63.0592 29.262 63.002 29.1827 62.9297 29.1186C62.7417 28.9737 62.5068 28.9037 62.2702 28.9219C62.1519 28.9139 62.0331 28.9295 61.9209 28.9677C61.8087 29.006 61.7051 29.0662 61.6163 29.1448C61.5275 29.2234 61.4552 29.3189 61.4036 29.4257C61.352 29.5325 61.3221 29.6484 61.3157 29.7669L60.302 29.5368C60.3252 29.3255 60.3905 29.1211 60.4939 28.9355C60.5974 28.7498 60.7369 28.5868 60.9043 28.4559C61.2883 28.1486 61.7702 27.99 62.2616 28.0091C62.5312 27.9866 62.8026 28.0184 63.0597 28.1027C63.3167 28.187 63.5543 28.3221 63.7582 28.4999C63.9191 28.6662 64.0447 28.8633 64.1275 29.0794C64.2103 29.2955 64.2487 29.5261 64.2403 29.7574V32.0823C64.2356 32.3331 64.2551 32.5838 64.2985 32.8309H63.2657C63.2242 32.6355 63.2081 32.4355 63.218 32.236C63.0762 32.4348 62.8948 32.6019 62.6851 32.727C62.4755 32.852 62.2422 32.9322 62 32.9624C61.7578 32.9926 61.512 32.9723 61.278 32.9027C61.0441 32.833 60.8271 32.7156 60.6409 32.5578V32.5559ZM61.9361 30.8602C61.5219 30.9308 61.3147 31.1421 61.3147 31.4941C61.3135 31.5742 61.3292 31.6537 61.3606 31.7274C61.392 31.801 61.4384 31.8673 61.497 31.9219C61.5639 31.9832 61.6423 32.0305 61.7277 32.061C61.8131 32.0915 61.9038 32.1046 61.9943 32.0995C62.2991 32.1123 62.5975 32.0101 62.8305 31.8131C62.947 31.6904 63.0358 31.5442 63.091 31.3842C63.1462 31.2243 63.1664 31.0544 63.1502 30.8859V30.6749L61.9361 30.8602ZM43.4857 32.2628C43.0416 31.7782 42.7944 31.1451 42.7927 30.4877C42.7909 29.8303 43.0347 29.1959 43.4762 28.709C43.6948 28.4805 43.9586 28.3001 44.2508 28.1792C44.543 28.0584 44.8572 27.9998 45.1733 28.0072C45.6849 27.9851 46.1877 28.1452 46.5926 28.4588C46.9418 28.7334 47.1919 29.1146 47.3046 29.5444L46.311 29.9092C46.2503 29.6715 46.1224 29.4563 45.9426 29.2895C45.7307 29.1088 45.4568 29.0177 45.179 29.0355C45.0087 29.0328 44.8398 29.0659 44.6832 29.1329C44.5267 29.1999 44.386 29.2991 44.2703 29.4241C44.0105 29.7147 43.8766 30.0966 43.8981 30.4859C43.8878 30.6815 43.9162 30.8773 43.9817 31.062C44.0472 31.2466 44.1485 31.4165 44.2799 31.5619C44.3974 31.6889 44.5403 31.7896 44.6993 31.8575C44.8584 31.9255 45.0299 31.9591 45.2028 31.9563C45.4867 31.9705 45.7652 31.8759 45.9817 31.6918C46.1654 31.5325 46.2998 31.3242 46.3692 31.0912L47.3447 31.4464C47.2111 31.8714 46.9527 32.2464 46.6031 32.5225C46.2046 32.8343 45.7084 32.9944 45.2028 32.9741C44.8829 32.9815 44.565 32.922 44.2693 32.7995C43.9736 32.6771 43.7068 32.4943 43.4857 32.2628ZM36.8119 32.2914C36.3688 31.7991 36.1221 31.161 36.1185 30.4986C36.115 29.8361 36.355 29.1955 36.7928 28.6985C37.2216 28.2616 37.8061 28.0127 38.4181 28.0065C39.0301 28.0002 39.6195 28.2371 40.0572 28.665C40.4779 29.1565 40.6935 29.791 40.6595 30.4372C40.6677 30.5563 40.6581 30.6761 40.6308 30.7924H37.2319C37.2338 30.9568 37.2691 31.1192 37.3358 31.2695C37.4024 31.4199 37.4989 31.5551 37.6194 31.667C37.8572 31.8945 38.1752 32.0187 38.5042 32.0126C38.7634 32.0347 39.0221 31.965 39.2353 31.8158C39.4484 31.6667 39.6025 31.4474 39.6706 31.1962L40.6079 31.4941C40.4772 31.9189 40.2143 32.2909 39.8577 32.5559C39.4662 32.8425 38.99 32.9897 38.5052 32.9741C38.1918 32.9799 37.8805 32.9221 37.5901 32.8041C37.2997 32.6861 37.0363 32.5104 36.8157 32.2876L36.8119 32.2914ZM37.5907 29.2513C37.3941 29.4436 37.2749 29.7015 37.2557 29.976H39.5408C39.5356 29.6988 39.4246 29.434 39.2306 29.236C39.1188 29.132 38.987 29.052 38.8432 29.0007C38.6995 28.9495 38.5467 28.9282 38.3944 28.9381C38.2468 28.9328 38.0997 28.9579 37.9623 29.0119C37.8248 29.066 37.7 29.1478 37.5955 29.2523L37.5907 29.2513ZM80.3455 32.2427C79.923 31.753 79.7011 31.1218 79.7241 30.4754C79.7068 29.8377 79.9304 29.2169 80.3502 28.7367C80.546 28.5071 80.7906 28.3242 81.066 28.2011C81.3414 28.0781 81.6408 28.018 81.9423 28.0253C82.2531 28.0112 82.562 28.0808 82.8367 28.2268C83.0379 28.3342 83.2037 28.4978 83.3139 28.6975V25.8751H84.3935V31.9744C84.3916 32.2616 84.4075 32.5486 84.4412 32.8337H83.3836C83.3504 32.6337 83.3344 32.4312 83.3359 32.2284C83.2111 32.4492 83.0251 32.6293 82.8004 32.7469C82.5449 32.8846 82.2583 32.954 81.9681 32.9483C81.6631 32.9582 81.3597 32.9 81.0799 32.7782C80.8001 32.6563 80.5508 32.4737 80.3502 32.2437L80.3455 32.2427ZM81.1873 29.4136C80.941 29.7109 80.815 30.0897 80.8342 30.4754C80.8153 30.8654 80.9377 31.2491 81.1787 31.5562C81.2888 31.6891 81.4279 31.7949 81.5852 31.8656C81.7426 31.9363 81.9141 31.9699 82.0865 31.9639C82.2566 31.9683 82.4254 31.9332 82.5797 31.8615C82.734 31.7898 82.8697 31.6833 82.976 31.5505C83.2167 31.2417 83.3389 30.8569 83.3206 30.4658C83.3406 30.0847 83.2219 29.7092 82.9865 29.4088C82.8779 29.2799 82.7414 29.1775 82.5872 29.1093C82.433 29.0411 82.2654 29.009 82.097 29.0155C81.9253 29.0108 81.7548 29.0442 81.5977 29.1134C81.4406 29.1826 81.3007 29.2858 81.1883 29.4155L81.1873 29.4136ZM32.2656 32.5167C32.1373 32.3804 32.0381 32.2193 31.9741 32.0433C31.9101 31.8673 31.8826 31.6802 31.8934 31.4932V29.1415H31.0343V28.1523H31.2729C31.3715 28.1594 31.4703 28.1451 31.5628 28.1103C31.6552 28.0756 31.739 28.0211 31.8084 27.9509C31.9335 27.8038 31.9983 27.6148 31.9898 27.4219V26.7211H32.9939V28.1533H33.9598V29.1425H32.9968V31.3127C32.9894 31.393 32.9983 31.474 33.0229 31.5507C33.0475 31.6275 33.0873 31.6985 33.1399 31.7596C33.266 31.8628 33.4272 31.9128 33.5895 31.899C33.7177 31.8991 33.8456 31.8863 33.9713 31.8608V32.7831C33.7542 32.8627 33.5236 32.8987 33.2927 32.8891C33.1059 32.8992 32.919 32.8715 32.7432 32.8076C32.5674 32.7438 32.4063 32.6452 32.2694 32.5177L32.2656 32.5167ZM99.8697 32.829V29.977C99.8817 29.725 99.8016 29.4772 99.6444 29.2799C99.559 29.1883 99.4541 29.117 99.3375 29.0714C99.2208 29.0258 99.0954 29.007 98.9705 29.0164C98.8395 29.0118 98.7091 29.0361 98.5885 29.0876C98.4679 29.1391 98.3601 29.2165 98.2728 29.3143C98.0923 29.5177 97.9964 29.7824 98.0046 30.0543V32.8299H96.9145V29.977C96.9266 29.7251 96.8469 29.4775 96.6902 29.2799C96.6048 29.1884 96.4999 29.1172 96.3832 29.0716C96.2666 29.026 96.1412 29.0071 96.0164 29.0164C95.8849 29.0108 95.7539 29.0341 95.6325 29.0848C95.5111 29.1354 95.4023 29.2122 95.3139 29.3095C95.1342 29.5151 95.04 29.7815 95.0504 30.0543V32.8299H93.9556V28.1514H95.017V28.7462C95.1492 28.5112 95.3514 28.3233 95.5954 28.2087C95.8429 28.0837 96.1162 28.0183 96.3934 28.0177C96.6873 28.013 96.9774 28.0858 97.2343 28.2287C97.4813 28.3676 97.676 28.5836 97.7889 28.8436C97.926 28.6264 98.1089 28.4417 98.3246 28.3023C98.5404 28.163 98.7839 28.0723 99.0382 28.0366C99.2926 28.0009 99.5516 28.021 99.7974 28.0956C100.043 28.1701 100.27 28.2973 100.461 28.4684C100.629 28.6437 100.758 28.8524 100.841 29.0808C100.923 29.3093 100.956 29.5524 100.939 29.7946V32.8299L99.8697 32.829ZM52.793 32.829V30.06C52.8068 29.7896 52.7258 29.5228 52.5639 29.3057C52.473 29.2053 52.3602 29.1272 52.2342 29.0775C52.1082 29.0278 51.9725 29.0079 51.8375 29.0193C51.707 29.0129 51.5767 29.0365 51.4566 29.0881C51.3365 29.1397 51.2298 29.2181 51.1446 29.3172C50.9698 29.5316 50.8738 29.7996 50.8726 30.0763V32.8232H49.7663V25.8751H50.8754V28.603C51.0386 28.4242 51.2361 28.2802 51.4563 28.1797C51.6764 28.0791 51.9145 28.0241 52.1564 28.0179C52.3983 28.0116 52.639 28.0543 52.864 28.1434C53.0891 28.2324 53.2938 28.366 53.4659 28.5361C53.7702 28.9134 53.9267 29.3886 53.9059 29.8729V32.8328L52.793 32.829ZM20.3548 32.346C20.1467 32.1352 19.9844 31.8836 19.8779 31.6071C19.7715 31.3306 19.7233 31.0351 19.7363 30.7391V30.2292C17.5777 32.003 14.8622 32.9569 12.0689 32.9227C9.98078 32.9513 7.92356 32.4166 6.11345 31.3749C4.30333 30.3332 2.80719 28.823 1.78227 27.0029C0.725948 25.1363 0.183793 23.0226 0.211175 20.8778V2.92263C0.197962 2.62848 0.244618 2.3347 0.348313 2.05913C0.452009 1.78356 0.610583 1.53193 0.814417 1.3195C1.02455 1.11534 1.27415 0.956258 1.54792 0.852001C1.82169 0.747745 2.11385 0.700513 2.40651 0.7132C2.69685 0.703334 2.9862 0.751919 3.2574 0.856071C3.52859 0.960223 3.77611 1.11782 3.98525 1.3195C4.19517 1.52859 4.35925 1.77911 4.46706 2.05512C4.57486 2.33113 4.62402 2.62657 4.6114 2.92263V12.8173C5.61275 11.5757 6.88139 10.5762 8.32271 9.89346C9.76402 9.21067 11.3408 8.86218 12.9356 8.87395C14.9226 8.84982 16.8756 9.39088 18.5671 10.4341C20.2567 11.4843 21.6274 12.9762 22.5311 14.7489L22.5368 14.7594C23.5834 16.6358 24.1195 18.7541 24.0917 20.9026V30.74C24.1049 31.0343 24.0588 31.3282 23.9562 31.6042C23.8535 31.8803 23.6964 32.1329 23.4942 32.347C23.0659 32.7385 22.5066 32.9556 21.9264 32.9556C21.3462 32.9556 20.787 32.7385 20.3587 32.347L20.3548 32.346ZM8.91426 15.1786C7.97536 15.747 7.20834 16.5599 6.69506 17.5303C6.15013 18.5622 5.87374 19.7147 5.89138 20.8816C5.87497 22.0542 6.1512 23.2123 6.69506 24.2512C7.20422 25.229 7.97181 26.0484 8.91426 26.62C9.86708 27.1963 10.9622 27.494 12.0756 27.4794C13.1889 27.4939 14.284 27.1962 15.2368 26.62C16.1816 26.0458 16.9542 25.2275 17.4732 24.2512C18.0277 23.2156 18.3101 22.0562 18.2941 20.8816C18.3114 19.7127 18.0288 18.5588 17.4732 17.5303C16.95 16.5614 16.1781 15.7496 15.2368 15.1786C14.2838 14.6029 13.1888 14.3053 12.0756 14.3192C10.9623 14.3052 9.8673 14.6028 8.91426 15.1786ZM142.646 20.7138C142.247 20.3087 141.935 19.827 141.728 19.2977C141.521 18.7684 141.423 18.2026 141.441 17.6345C141.423 17.0664 141.521 16.5006 141.728 15.9714C141.935 15.4421 142.247 14.9603 142.646 14.5553C143.458 13.7732 144.542 13.3363 145.669 13.3363C146.797 13.3363 147.881 13.7732 148.693 14.5553C149.092 14.9602 149.404 15.4419 149.611 15.9712C149.819 16.5005 149.916 17.0664 149.898 17.6345C149.916 18.2026 149.818 18.7684 149.611 19.2977C149.404 19.827 149.092 20.3087 148.693 20.7138C147.88 21.4954 146.797 21.932 145.669 21.932C144.542 21.932 143.458 21.4954 142.646 20.7138ZM144.219 15.9397C144.011 16.1682 143.851 16.4359 143.748 16.7271C143.645 17.0183 143.602 17.3272 143.62 17.6355C143.601 17.9433 143.644 18.2518 143.747 18.5429C143.849 18.8339 144.008 19.1016 144.215 19.3303C144.404 19.5232 144.63 19.6765 144.879 19.7811C145.128 19.8857 145.395 19.9396 145.665 19.9396C145.935 19.9396 146.203 19.8857 146.452 19.7811C146.701 19.6765 146.926 19.5232 147.115 19.3303C147.323 19.1017 147.483 18.8338 147.586 18.5424C147.689 18.251 147.732 17.942 147.714 17.6336C147.732 17.3253 147.689 17.0164 147.586 16.7252C147.483 16.434 147.323 16.1663 147.115 15.9378C146.926 15.7449 146.701 15.5916 146.452 15.487C146.203 15.3824 145.935 15.3285 145.665 15.3285C145.395 15.3285 145.128 15.3824 144.879 15.487C144.63 15.5916 144.404 15.7449 144.215 15.9378L144.219 15.9397ZM40.9307 20.7138C40.5322 20.3087 40.2199 19.827 40.0128 19.2977C39.8058 18.7684 39.7083 18.2026 39.7261 17.6345C39.708 17.0664 39.8054 16.5005 40.0125 15.9712C40.2195 15.4419 40.5319 14.9602 40.9307 14.5553C41.7432 13.7732 42.827 13.3363 43.9546 13.3363C45.0821 13.3363 46.1659 13.7732 46.9784 14.5553C47.3772 14.9602 47.6896 15.4419 47.8967 15.9712C48.1037 16.5005 48.2011 17.0664 48.183 17.6345C48.2009 18.2026 48.1033 18.7684 47.8963 19.2977C47.6892 19.827 47.377 20.3087 46.9784 20.7138C46.1657 21.4954 45.082 21.932 43.9546 21.932C42.8271 21.932 41.7435 21.4954 40.9307 20.7138ZM42.5037 15.9397C42.296 16.1682 42.136 16.4359 42.0332 16.7271C41.9304 17.0183 41.8869 17.3272 41.9053 17.6355C41.8868 17.9439 41.9303 18.2529 42.0331 18.5443C42.1359 18.8357 42.2959 19.1036 42.5037 19.3322C42.6928 19.5251 42.9185 19.6784 43.1675 19.783C43.4166 19.8876 43.684 19.9415 43.9541 19.9415C44.2242 19.9415 44.4916 19.8876 44.7406 19.783C44.9897 19.6784 45.2153 19.5251 45.4044 19.3322C45.6123 19.1036 45.7723 18.8357 45.8751 18.5443C45.9779 18.2529 46.0213 17.9439 46.0029 17.6355C46.0212 17.3272 45.9777 17.0183 45.875 16.7271C45.7722 16.4359 45.6122 16.1682 45.4044 15.9397C45.2153 15.7468 44.9897 15.5935 44.7406 15.4889C44.4916 15.3843 44.2242 15.3304 43.9541 15.3304C43.684 15.3304 43.4166 15.3843 43.1675 15.4889C42.9185 15.5935 42.6928 15.7468 42.5037 15.9397ZM123.911 21.1912C123.67 20.9758 123.478 20.7119 123.346 20.4169C123.214 20.1218 123.147 19.8023 123.147 19.4792C123.133 19.1703 123.186 18.862 123.301 18.5751C123.416 18.2882 123.592 18.0293 123.815 17.8159C124.3 17.3812 124.906 17.1053 125.552 17.0253L127.536 16.7294C127.941 16.6746 128.143 16.4837 128.143 16.1565C128.146 16.0116 128.116 15.868 128.055 15.7366C127.993 15.6053 127.903 15.4899 127.79 15.3993C127.475 15.1921 127.103 15.0886 126.727 15.1034C126.35 15.1181 125.988 15.2503 125.69 15.4814C125.426 15.7256 125.265 16.0612 125.239 16.42L123.306 16.0085C123.397 15.278 123.767 14.6111 124.338 14.1476C125.018 13.5858 125.884 13.2981 126.765 13.3407C127.243 13.3002 127.724 13.3558 128.18 13.5042C128.636 13.6526 129.058 13.8908 129.42 14.2048C129.704 14.4975 129.926 14.8447 130.072 15.2253C130.218 15.606 130.286 16.0124 130.271 16.42V20.4044C130.267 20.8344 130.298 21.2641 130.367 21.6886H128.367C128.305 21.3688 128.278 21.0433 128.285 20.7176C128.032 21.1118 127.678 21.4312 127.261 21.6426C126.843 21.8539 126.376 21.9496 125.908 21.9197C125.173 21.949 124.456 21.6873 123.913 21.1912H123.911ZM126.328 18.3267C125.662 18.4254 125.328 18.766 125.328 19.3484C125.326 19.4731 125.349 19.5969 125.397 19.712C125.445 19.8271 125.517 19.9309 125.607 20.0168C125.711 20.1109 125.832 20.1834 125.965 20.2301C126.097 20.2769 126.237 20.2968 126.377 20.2889C126.84 20.3064 127.292 20.1509 127.647 19.8525C127.829 19.6628 127.968 19.4357 128.055 19.187C128.141 18.9383 128.172 18.6738 128.147 18.4117V18.0489L126.328 18.3267ZM52.0191 20.6985V21.6867H49.9049V9.76307H52.0515V14.4722C52.2886 14.1302 52.6147 13.8598 52.9946 13.6902C53.4621 13.4683 53.9748 13.3585 54.4922 13.3694C55.006 13.3464 55.5183 13.4413 55.9898 13.6468C56.4613 13.8524 56.8795 14.1631 57.2125 14.5553C57.9035 15.416 58.2589 16.4982 58.2128 17.6011C58.2551 18.7194 57.8809 19.8136 57.1629 20.6718C56.8242 21.0675 56.4008 21.3818 55.9241 21.5914C55.4474 21.801 54.9296 21.9005 54.4091 21.8825C53.9411 21.919 53.4718 21.8282 53.0511 21.6198C52.6303 21.4114 52.2738 21.0931 52.0191 20.6985ZM52.5918 15.9397C52.189 16.4033 51.9834 17.0061 52.0191 17.6192C51.9849 18.2365 52.1939 18.8425 52.6013 19.3073C52.7824 19.5062 53.0037 19.6641 53.2506 19.7706C53.4975 19.8772 53.7642 19.9298 54.0331 19.9251C54.3022 19.932 54.5696 19.8803 54.8168 19.7736C55.064 19.6669 55.2851 19.5079 55.4648 19.3073C55.8623 18.8378 56.0646 18.2336 56.0299 17.6192C56.0657 17.0074 55.8632 16.4054 55.4648 15.9397C55.2838 15.7414 55.0623 15.5843 54.8153 15.4792C54.5682 15.3741 54.3014 15.3234 54.0331 15.3306C53.7636 15.3238 53.4958 15.3746 53.2474 15.4795C52.9991 15.5843 52.7759 15.7409 52.5927 15.9388L52.5918 15.9397ZM153.664 21.6848L150.37 13.5833H152.763L154.763 19.0171L156.68 13.5833H158.971L155.84 21.6848H153.664ZM137.651 21.6848V16.9595C137.671 16.5385 137.54 16.1241 137.282 15.7908C137.134 15.6469 136.96 15.5335 136.768 15.4573C136.576 15.381 136.372 15.3433 136.165 15.3463C135.959 15.3493 135.756 15.393 135.566 15.4748C135.377 15.5567 135.206 15.6751 135.062 15.8232C134.783 16.16 134.637 16.5879 134.653 17.0253V21.6848H132.474V13.5833H134.589V14.5877C134.817 14.1931 135.16 13.8771 135.572 13.6816C135.99 13.4751 136.45 13.3682 136.916 13.3694C137.322 13.3427 137.73 13.4098 138.106 13.5654C138.483 13.721 138.819 13.961 139.088 14.2669C139.605 14.9242 139.87 15.7449 139.834 16.5804V21.6848H137.651ZM119.245 21.6848V16.9595C119.265 16.5385 119.135 16.1241 118.877 15.7908C118.582 15.5059 118.189 15.3466 117.779 15.3466C117.369 15.3466 116.976 15.5059 116.681 15.7908C116.406 16.1059 116.252 16.5087 116.247 16.927V21.6858H114.067V9.76307H116.248V14.2583C116.519 13.9536 116.857 13.7151 117.235 13.561C117.612 13.4069 118.02 13.3414 118.427 13.3694C118.844 13.3405 119.261 13.4063 119.649 13.5617C120.036 13.7171 120.383 13.9582 120.664 14.2669C121.192 14.9195 121.463 15.742 121.428 16.5804V21.6848H119.245ZM110.115 21.6848L107.985 18.5893L107.083 19.5441V21.6848H104.909V9.76307H107.085V16.5928L109.871 13.5794H112.723L109.495 16.9881L112.789 21.681L110.115 21.6848ZM100.397 21.6848V9.76307H102.577V21.6848H100.397ZM95.8896 21.6848V13.5833H98.0687V21.6848H95.8896ZM91.9399 21.6848L89.8095 18.5893L88.9084 19.5441V21.6848H86.7331V9.76307H88.9132V16.5928L91.6994 13.5794H94.5514L91.3233 16.9881L94.6173 21.681L91.9399 21.6848ZM82.9419 21.6848L81.9817 19.0171H77.2598L76.2929 21.6848H73.8999L78.3546 10.0104H80.9775L85.4026 21.6848H82.9419ZM78.0081 16.9423H81.2209L79.6145 12.5292L78.0081 16.9423ZM64.4428 21.6848V13.5833H66.557V14.7854C66.7626 14.3644 67.0928 14.0169 67.5026 13.7901C67.9124 13.5633 68.382 13.468 68.8478 13.5174C68.9681 13.5174 69.1341 13.5279 69.3556 13.5498V15.7564C69.14 15.7128 68.9207 15.6907 68.7008 15.6905C68.1476 15.6651 67.6064 15.8569 67.1927 16.2252C66.9818 16.4625 66.8221 16.7407 66.7236 17.0425C66.625 17.3443 66.5898 17.6632 66.62 17.9792V21.6839L64.4428 21.6848ZM59.9357 21.6848V13.5833H62.1157V21.6848H59.9357ZM30.4179 21.6848V10.0104H34.5976C35.5438 9.95543 36.4745 10.2681 37.1958 10.8831C37.5068 11.1719 37.752 11.5244 37.9145 11.9165C38.0771 12.3087 38.1533 12.7313 38.1379 13.1555C38.147 13.7167 37.9801 14.2667 37.6606 14.7281C37.3701 15.1633 36.9439 15.4903 36.4484 15.6581C37.0345 15.7983 37.5531 16.1391 37.9145 16.6215C38.3083 17.1384 38.5138 17.7744 38.4968 18.4241C38.5111 18.863 38.4307 19.2999 38.2611 19.7049C38.0914 20.1099 37.8365 20.4735 37.5136 20.7711C36.7968 21.4029 35.8622 21.7307 34.9078 21.6848H30.4179ZM32.6466 19.7914H34.4821C34.9459 19.8185 35.4036 19.6748 35.7688 19.3875C35.9251 19.2493 36.0482 19.0775 36.129 18.8851C36.2098 18.6927 36.2462 18.4846 36.2356 18.2761C36.2448 18.0657 36.2095 17.8556 36.1318 17.6598C36.0542 17.464 35.936 17.2868 35.785 17.1399C35.4339 16.8365 34.9777 16.6829 34.5146 16.7122H32.6466V19.7914ZM32.6466 14.835H34.2569C34.6965 14.8601 35.1295 14.719 35.47 14.4397C35.6179 14.3048 35.7342 14.1389 35.8108 13.9539C35.8873 13.769 35.9222 13.5694 35.9129 13.3694C35.923 13.1714 35.8893 12.9735 35.8142 12.79C35.7392 12.6065 35.6246 12.4418 35.4786 12.3076C35.1278 12.0282 34.6853 11.8899 34.2378 11.92H32.6466V14.835ZM96.0251 11.8751C95.8991 11.7537 95.7992 11.6078 95.7316 11.4464C95.664 11.285 95.6301 11.1115 95.6319 10.9365C95.6293 10.7577 95.6628 10.5803 95.7304 10.4148C95.798 10.2492 95.8982 10.099 96.0251 9.97313C96.1486 9.84618 96.2961 9.74513 96.4591 9.6759C96.622 9.60667 96.7972 9.57065 96.9742 9.56994C97.1513 9.56923 97.3267 9.60384 97.4902 9.67176C97.6537 9.73968 97.802 9.83954 97.9265 9.96549C98.0548 10.092 98.1558 10.2434 98.2234 10.4104C98.2911 10.5773 98.3238 10.7564 98.3197 10.9365C98.3172 11.2009 98.2367 11.4586 98.0883 11.6774C97.94 11.8962 97.7304 12.0664 97.4859 12.1666C97.2413 12.2668 96.9726 12.2926 96.7134 12.2407C96.4543 12.1889 96.2162 12.0617 96.029 11.8751H96.0251ZM60.0664 11.8751C59.9405 11.7536 59.8408 11.6077 59.7731 11.4464C59.7055 11.285 59.6715 11.1115 59.6732 10.9365C59.671 10.7578 59.7047 10.5805 59.7723 10.415C59.8398 10.2495 59.9398 10.0993 60.0664 9.97313C60.1886 9.84308 60.3367 9.74005 60.5011 9.67066C60.6655 9.60127 60.8425 9.56705 61.0209 9.5702C61.1987 9.56688 61.3751 9.60028 61.5394 9.66829C61.7036 9.73631 61.8521 9.83748 61.9754 9.96549C62.1035 10.0921 62.2045 10.2435 62.2721 10.4105C62.3397 10.5774 62.3726 10.7564 62.3687 10.9365C62.3661 11.2009 62.2856 11.4586 62.1373 11.6774C61.9889 11.8962 61.7794 12.0664 61.5348 12.1666C61.2902 12.2668 61.0215 12.2926 60.7624 12.2407C60.5032 12.1889 60.2651 12.0617 60.0779 11.8751H60.0664Z" fill="white"/>
</svg>
