<svg width="107" height="53" viewBox="0 0 107 53" fill="none" xmlns="http://www.w3.org/2000/svg">
<path d="M39.7668 34.337C37.3424 34.337 35.1965 33.8292 33.3291 32.8136C31.4944 31.7652 30.0529 30.3073 29.0045 28.4399C27.9889 26.5397 27.4811 24.3119 27.4811 21.7565V21.1667C27.4811 18.6113 27.9889 16.3999 29.0045 14.5325C30.0201 12.6323 31.4453 11.1744 33.2799 10.1588C35.1146 9.11038 37.2441 8.58619 39.6685 8.58619C42.0601 8.58619 44.1405 9.12676 45.9096 10.2079C47.6788 11.2563 49.0548 12.7306 50.0376 14.6308C51.0205 16.4982 51.5119 18.6768 51.5119 21.1667V23.2799H33.7714C33.8369 24.9507 34.4594 26.3104 35.6388 27.3587C36.8182 28.4071 38.2597 28.9313 39.9634 28.9313C41.6997 28.9313 42.9774 28.5545 43.7965 27.801C44.6155 27.0475 45.238 26.2121 45.6639 25.2947L50.7256 27.9485C50.267 28.8003 49.5953 29.734 48.7108 30.7496C47.859 31.7324 46.7123 32.5843 45.2708 33.305C43.8293 33.993 41.9946 34.337 39.7668 34.337ZM33.8205 18.6605H45.2216C45.0906 17.2517 44.5172 16.1214 43.5016 15.2696C42.5188 14.4178 41.2247 13.9919 39.6194 13.9919C37.9485 13.9919 36.6216 14.4178 35.6388 15.2696C34.6559 16.1214 34.0498 17.2517 33.8205 18.6605Z" fill="#090909"/>
<path d="M91.0854 34.337C88.661 34.337 86.4823 33.8456 84.5494 32.8627C82.6164 31.8799 81.093 30.4547 79.9791 28.5873C78.8652 26.7199 78.3083 24.4757 78.3083 21.8547V21.0685C78.3083 18.4475 78.8652 16.2033 79.9791 14.3359C81.093 12.4685 82.6164 11.0433 84.5494 10.0605C86.4823 9.07762 88.661 8.58619 91.0854 8.58619C93.5098 8.58619 95.6884 9.07762 97.6214 10.0605C99.5543 11.0433 101.078 12.4685 102.192 14.3359C103.306 16.2033 103.863 18.4475 103.863 21.0685V21.8547C103.863 24.4757 103.306 26.7199 102.192 28.5873C101.078 30.4547 99.5543 31.8799 97.6214 32.8627C95.6884 33.8456 93.5098 34.337 91.0854 34.337ZM91.0854 28.833C92.9856 28.833 94.5581 28.2269 95.8031 27.0147C97.048 25.7698 97.6705 24.0006 97.6705 21.7073V21.2159C97.6705 18.9226 97.048 17.1698 95.8031 15.9576C94.5909 14.7127 93.0183 14.0902 91.0854 14.0902C89.1852 14.0902 87.6126 14.7127 86.3677 15.9576C85.1227 17.1698 84.5003 18.9226 84.5003 21.2159V21.7073C84.5003 24.0006 85.1227 25.7698 86.3677 27.0147C87.6126 28.2269 89.1852 28.833 91.0854 28.833Z" fill="#090909"/>
<path d="M54.7144 34.3267V0.0522461H60.9064V18.945H61.791L71.4686 8.52344H78.622L66.6561 21.7461L78.3029 34.3267H70.3418L61.791 24.6456H60.9064V34.3267H54.7144Z" fill="#090909"/>
<path d="M0.749756 42.7896V37.3839H16.8686C17.7859 37.3839 18.2446 36.8924 18.2446 35.9096V29.7667H17.36C17.0979 30.3237 16.6884 30.8806 16.1314 31.4376C15.5745 31.9945 14.821 32.4532 13.8709 32.8136C12.9208 33.174 11.7086 33.3541 10.2343 33.3541C8.33412 33.3541 6.66327 32.9282 5.22175 32.0764C3.81299 31.1919 2.71547 29.9797 1.92918 28.4399C1.1429 26.9001 0.749756 25.1309 0.749756 23.1325V8.58619H6.94175V22.641C6.94175 24.4757 7.38403 25.8517 8.2686 26.769C9.18593 27.6863 10.48 28.145 12.1509 28.145C14.0511 28.145 15.5254 27.5225 16.5737 26.2776C17.6221 24.9999 18.1463 23.2307 18.1463 20.9702V8.58619H24.3383V37.2856C24.3383 38.9564 23.8469 40.2833 22.864 41.2661C21.8812 42.2818 20.5707 42.7896 18.9326 42.7896H0.749756Z" fill="#090909"/>
<path d="M105.286 32.4511C105.35 32.3611 105.442 32.3162 105.562 32.3162C105.616 32.3162 105.671 32.3258 105.726 32.3452C105.783 32.3646 105.839 32.3874 105.894 32.4137L105.996 32.1584C105.928 32.1265 105.857 32.1016 105.782 32.0836C105.709 32.0642 105.635 32.0545 105.562 32.0545C105.413 32.0545 105.286 32.0871 105.182 32.1521C105.08 32.2172 105.001 32.3072 104.948 32.422C104.894 32.5369 104.867 32.6691 104.867 32.8186C104.867 32.9709 104.89 33.1044 104.937 33.2193C104.984 33.3328 105.057 33.4214 105.155 33.4851C105.255 33.5474 105.381 33.5785 105.533 33.5785C105.612 33.5785 105.683 33.5723 105.747 33.5598C105.811 33.5474 105.875 33.528 105.94 33.5017V33.238C105.869 33.2629 105.804 33.2823 105.743 33.2962C105.683 33.31 105.623 33.3169 105.562 33.3169C105.432 33.3169 105.337 33.274 105.278 33.1882C105.22 33.101 105.19 32.9785 105.19 32.8207C105.19 32.6643 105.222 32.5411 105.286 32.4511Z" fill="#090909"/>
<path fill-rule="evenodd" clip-rule="evenodd" d="M107 32.8703C107 33.7367 106.298 34.439 105.431 34.439C104.565 34.439 103.863 33.7367 103.863 32.8703C103.863 32.0039 104.565 31.3015 105.431 31.3015C106.298 31.3015 107 32.0039 107 32.8703ZM106.71 32.8703C106.71 33.5764 106.137 34.1488 105.431 34.1488C104.725 34.1488 104.153 33.5764 104.153 32.8703C104.153 32.1642 104.725 31.5918 105.431 31.5918C106.137 31.5918 106.71 32.1642 106.71 32.8703Z" fill="#090909"/>
<path d="M29.616 44.3789C29.616 43.5555 29.7827 42.8349 30.116 42.2173C30.4493 41.5899 30.9051 41.1046 31.4835 40.7615C32.0717 40.4184 32.7286 40.2468 33.454 40.2468C34.0814 40.2468 34.6647 40.3939 35.2039 40.688C35.7431 40.9723 36.1548 41.3497 36.4391 41.8203V37.5558H37.792V48.4375H36.4391V46.9229C36.1744 47.4033 35.7823 47.8003 35.2627 48.114C34.7431 48.4179 34.1353 48.5698 33.4393 48.5698C32.7237 48.5698 32.0717 48.3934 31.4835 48.0405C30.9051 47.6875 30.4493 47.1925 30.116 46.5553C29.7827 45.9181 29.616 45.1926 29.616 44.3789ZM36.4391 44.3936C36.4391 43.7858 36.3166 43.2565 36.0715 42.8055C35.8264 42.3546 35.4931 42.0114 35.0715 41.7762C34.6598 41.5311 34.204 41.4085 33.704 41.4085C33.204 41.4085 32.7482 41.5262 32.3364 41.7615C31.9247 41.9967 31.5963 42.3398 31.3512 42.7908C31.1061 43.2417 30.9836 43.7711 30.9836 44.3789C30.9836 44.9965 31.1061 45.5357 31.3512 45.9965C31.5963 46.4474 31.9247 46.7954 32.3364 47.0405C32.7482 47.2758 33.204 47.3934 33.704 47.3934C34.204 47.3934 34.6598 47.2758 35.0715 47.0405C35.4931 46.7954 35.8264 46.4474 36.0715 45.9965C36.3166 45.5357 36.4391 45.0014 36.4391 44.3936ZM47.4058 44.0995C47.4058 44.3544 47.3911 44.624 47.3617 44.9083H40.9209C40.9699 45.7024 41.2395 46.3249 41.7297 46.7758C42.2296 47.217 42.8325 47.4376 43.5384 47.4376C44.1168 47.4376 44.5971 47.3052 44.9795 47.0405C45.3716 46.766 45.6461 46.4033 45.8029 45.9524H47.244C47.0284 46.7268 46.597 47.3591 45.95 47.8493C45.303 48.3297 44.4991 48.5698 43.5384 48.5698C42.7737 48.5698 42.0875 48.3983 41.4797 48.0552C40.8817 47.7121 40.4111 47.2268 40.068 46.5994C39.7249 45.9622 39.5533 45.2269 39.5533 44.3936C39.5533 43.5604 39.72 42.83 40.0533 42.2026C40.3866 41.5752 40.8523 41.0948 41.4503 40.7615C42.0581 40.4184 42.7541 40.2468 43.5384 40.2468C44.303 40.2468 44.9795 40.4135 45.5677 40.7468C46.1559 41.0801 46.6068 41.5409 46.9205 42.1291C47.244 42.7075 47.4058 43.3643 47.4058 44.0995ZM46.0235 43.8201C46.0235 43.3104 45.9108 42.8741 45.6853 42.5114C45.4598 42.1389 45.151 41.8595 44.7589 41.6732C44.3766 41.4772 43.9501 41.3791 43.4796 41.3791C42.8031 41.3791 42.2247 41.5948 41.7444 42.0261C41.2738 42.4575 41.0042 43.0555 40.9356 43.8201H46.0235ZM52.0249 48.5698C51.4073 48.5698 50.8534 48.4669 50.3632 48.261C49.873 48.0454 49.4858 47.7513 49.2015 47.3787C48.9172 46.9964 48.7604 46.5602 48.731 46.07H50.1132C50.1524 46.4719 50.3387 46.8003 50.672 47.0552C51.0151 47.3101 51.4612 47.4376 52.0102 47.4376C52.5199 47.4376 52.9219 47.3248 53.216 47.0993C53.5101 46.8739 53.6571 46.5896 53.6571 46.2465C53.6571 45.8935 53.5003 45.6338 53.1866 45.4671C52.8729 45.2906 52.3876 45.1191 51.7308 44.9524C51.1328 44.7956 50.6426 44.6387 50.2603 44.4819C49.8877 44.3152 49.5642 44.075 49.2897 43.7613C49.0251 43.4378 48.8927 43.0163 48.8927 42.4967C48.8927 42.085 49.0153 41.7075 49.2603 41.3644C49.5054 41.0213 49.8534 40.7517 50.3044 40.5556C50.7553 40.3498 51.27 40.2468 51.8484 40.2468C52.7405 40.2468 53.461 40.4723 54.01 40.9233C54.559 41.3742 54.8531 41.9918 54.8923 42.7761H53.5542C53.5248 42.3546 53.3532 42.0163 53.0395 41.7615C52.7356 41.5066 52.3239 41.3791 51.8043 41.3791C51.3239 41.3791 50.9416 41.4821 50.6573 41.6879C50.373 41.8938 50.2309 42.1634 50.2309 42.4967C50.2309 42.7614 50.3142 42.982 50.4808 43.1584C50.6573 43.3251 50.873 43.4623 51.1279 43.5702C51.3926 43.6682 51.7553 43.7809 52.216 43.9084C52.7944 44.0652 53.265 44.2221 53.6277 44.3789C53.9904 44.526 54.2992 44.7515 54.5541 45.0554C54.8188 45.3593 54.9561 45.7563 54.9659 46.2465C54.9659 46.6876 54.8433 47.0846 54.5982 47.4376C54.3531 47.7905 54.0051 48.0699 53.5542 48.2757C53.113 48.4718 52.6033 48.5698 52.0249 48.5698ZM57.546 39.0704C57.2911 39.0704 57.0754 38.9822 56.899 38.8058C56.7225 38.6293 56.6343 38.4136 56.6343 38.1587C56.6343 37.9039 56.7225 37.6882 56.899 37.5117C57.0754 37.3353 57.2911 37.247 57.546 37.247C57.7911 37.247 57.997 37.3353 58.1636 37.5117C58.3401 37.6882 58.4283 37.9039 58.4283 38.1587C58.4283 38.4136 58.3401 38.6293 58.1636 38.8058C57.997 38.9822 57.7911 39.0704 57.546 39.0704ZM58.193 40.3792V48.4375H56.8549V40.3792H58.193ZM63.797 40.2468C64.493 40.2468 65.1008 40.3988 65.6204 40.7027C66.1498 41.0066 66.5419 41.3889 66.7968 41.8497V40.3792H68.1497V48.614C68.1497 49.3492 67.9928 50.0011 67.6791 50.5697C67.3654 51.1481 66.9144 51.5991 66.3262 51.9226C65.7478 52.2461 65.0714 52.4078 64.297 52.4078C63.2382 52.4078 62.3559 52.1579 61.6501 51.6579C60.9442 51.1579 60.5276 50.4766 60.4001 49.6139H61.7236C61.8706 50.1041 62.1745 50.4962 62.6353 50.7903C63.0961 51.0942 63.6499 51.2461 64.297 51.2461C65.0322 51.2461 65.6302 51.0158 66.091 50.555C66.5615 50.0943 66.7968 49.4472 66.7968 48.614V46.9229C66.5321 47.3934 66.14 47.7856 65.6204 48.0993C65.1008 48.413 64.493 48.5698 63.797 48.5698C63.0813 48.5698 62.4294 48.3934 61.8412 48.0405C61.2628 47.6875 60.807 47.1925 60.4737 46.5553C60.1404 45.9181 59.9737 45.1926 59.9737 44.3789C59.9737 43.5555 60.1404 42.8349 60.4737 42.2173C60.807 41.5899 61.2628 41.1046 61.8412 40.7615C62.4294 40.4184 63.0813 40.2468 63.797 40.2468ZM66.7968 44.3936C66.7968 43.7858 66.6743 43.2565 66.4292 42.8055C66.1841 42.3546 65.8508 42.0114 65.4292 41.7762C65.0175 41.5311 64.5616 41.4085 64.0617 41.4085C63.5617 41.4085 63.1059 41.5262 62.6941 41.7615C62.2824 41.9967 61.954 42.3398 61.7089 42.7908C61.4638 43.2417 61.3413 43.7711 61.3413 44.3789C61.3413 44.9965 61.4638 45.5357 61.7089 45.9965C61.954 46.4474 62.2824 46.7954 62.6941 47.0405C63.1059 47.2758 63.5617 47.3934 64.0617 47.3934C64.5616 47.3934 65.0175 47.2758 65.4292 47.0405C65.8508 46.7954 66.1841 46.4474 66.4292 45.9965C66.6743 45.5357 66.7968 45.0014 66.7968 44.3936ZM74.3372 40.2321C75.3176 40.2321 76.1116 40.5311 76.7194 41.1291C77.3272 41.7173 77.6311 42.5702 77.6311 43.6878V48.4375H76.3077V43.879C76.3077 43.0751 76.1067 42.4624 75.7048 42.0408C75.3028 41.6095 74.7539 41.3938 74.0578 41.3938C73.352 41.3938 72.7883 41.6144 72.3668 42.0555C71.955 42.4967 71.7491 43.1388 71.7491 43.9819V48.4375H70.411V40.3792H71.7491V41.5262C72.0138 41.1144 72.3717 40.7958 72.8226 40.5703C73.2834 40.3449 73.7882 40.2321 74.3372 40.2321ZM85.0755 41.8791C85.35 41.3987 85.7519 41.0066 86.2813 40.7027C86.8107 40.3988 87.4136 40.2468 88.09 40.2468C88.8155 40.2468 89.4674 40.4184 90.0458 40.7615C90.6242 41.1046 91.08 41.5899 91.4133 42.2173C91.7467 42.8349 91.9133 43.5555 91.9133 44.3789C91.9133 45.1926 91.7467 45.9181 91.4133 46.5553C91.08 47.1925 90.6193 47.6875 90.0311 48.0405C89.4527 48.3934 88.8057 48.5698 88.09 48.5698C87.394 48.5698 86.7813 48.4179 86.2519 48.114C85.7323 47.8101 85.3402 47.4229 85.0755 46.9523V48.4375H83.7374V37.5558H85.0755V41.8791ZM90.5458 44.3789C90.5458 43.7711 90.4232 43.2417 90.1781 42.7908C89.933 42.3398 89.5997 41.9967 89.1782 41.7615C88.7665 41.5262 88.3106 41.4085 87.8106 41.4085C87.3205 41.4085 86.8646 41.5311 86.4431 41.7762C86.0313 42.0114 85.698 42.3595 85.4431 42.8202C85.1981 43.2712 85.0755 43.7956 85.0755 44.3936C85.0755 45.0014 85.1981 45.5357 85.4431 45.9965C85.698 46.4474 86.0313 46.7954 86.4431 47.0405C86.8646 47.2758 87.3205 47.3934 87.8106 47.3934C88.3106 47.3934 88.7665 47.2758 89.1782 47.0405C89.5997 46.7954 89.933 46.4474 90.1781 45.9965C90.4232 45.5357 90.5458 44.9965 90.5458 44.3789ZM100.615 40.3792L95.7628 52.2314H94.3805L95.9687 48.3493L92.7189 40.3792H94.2041L96.7333 46.9082L99.2332 40.3792H100.615Z" fill="black"/>
</svg>
