<svg width="30" height="31" viewBox="0 0 30 31" fill="none" xmlns="http://www.w3.org/2000/svg">
<g clip-path="url(#clip0)">
<path d="M21.7443 19.707C20.1388 20.7266 17.9298 21.1309 16.4708 21.2832L17.6954 22.4902L22.1661 26.9609C23.8009 28.6367 21.1407 31.2559 19.4884 29.6387C18.3693 28.502 16.7286 26.8613 15.0177 25.1504L10.547 29.6328C8.89464 31.2441 6.23449 28.6016 7.88683 26.9551C9.02355 25.8184 10.6466 24.1777 12.3575 22.4844L13.5646 21.2773C12.1232 21.125 9.87902 20.7441 8.25597 19.7012C6.34582 18.4707 5.50792 17.75 6.24621 16.2441C6.6798 15.3887 7.86925 14.668 9.44542 15.9102C9.44542 15.9102 11.5724 17.6035 15.006 17.6035C18.4396 17.6035 20.5665 15.9102 20.5665 15.9102C22.1427 14.6738 23.3263 15.3887 23.7657 16.2441C24.4923 17.75 23.6544 18.4707 21.7443 19.707ZM7.4005 7.73633C7.4005 3.53516 10.8165 0.136719 15.0001 0.136719C19.1837 0.136719 22.5997 3.53516 22.5997 7.73633C22.5997 11.9199 19.1837 15.3184 15.0001 15.3184C10.8165 15.3184 7.4005 11.9199 7.4005 7.73633ZM11.2677 7.73633C11.2677 9.79297 12.9435 11.4688 15.0001 11.4688C17.0568 11.4688 18.7325 9.79297 18.7325 7.73633C18.7325 5.66211 17.0568 3.98633 15.0001 3.98633C12.9435 3.98633 11.2677 5.66211 11.2677 7.73633Z" fill="#252525"/>
</g>
<defs>
<clipPath id="clip0">
<rect width="30" height="30" fill="white" transform="translate(0 0.136719)"/>
</clipPath>
</defs>
</svg>
