<svg width="191" height="42" viewBox="0 0 191 42" fill="none" xmlns="http://www.w3.org/2000/svg">
<path d="M28.932 22.1413L27.987 22.4003L28.987 22.2303L28.853 22.3833L28.583 22.6433L28.77 22.5813L28.548 22.8383L28.274 23.0493L28.322 23.0463L28.185 23.1563C28.0957 23.259 27.991 23.3707 27.871 23.4913C27.751 23.612 27.6934 23.7043 27.698 23.7683L27.099 24.1473C27.0213 24.1772 26.9507 24.2233 26.892 24.2823C26.8019 24.3601 26.7008 24.4241 26.592 24.4723C26.5554 24.4778 26.5203 24.4905 26.4887 24.5097C26.4571 24.529 26.4297 24.5543 26.408 24.5843L25.98 24.6633C25.918 24.734 25.8724 24.7707 25.843 24.7733C25.2797 24.9733 24.6997 25.1663 24.103 25.3523C23.5064 25.5383 23.0357 25.6917 22.691 25.8123C22.723 25.8103 22.7424 25.857 22.749 25.9523C23.1252 26.7529 23.2869 27.6375 23.218 28.5193C23.1839 29.268 23.041 30.0078 22.794 30.7153C22.506 31.4203 22.1678 32.1037 21.782 32.7603C20.4011 34.9088 18.5067 36.6794 16.27 37.9123C14.1356 39.3142 11.7544 40.2983 9.25303 40.8123C8.36411 40.9983 7.46532 41.1335 6.56103 41.2173C5.33503 41.3507 4.67403 41.4207 4.57803 41.4273L4.29103 41.4483C4.28836 41.4163 4.36703 41.3947 4.52703 41.3833L4.81403 41.3633C4.91273 41.3482 5.00832 41.3172 5.09703 41.2713C5.20057 41.2205 5.31229 41.1883 5.42703 41.1763L6.43003 41.0573C6.51852 41.014 6.61551 40.9908 6.71403 40.9893C6.7665 40.9891 6.81678 40.9683 6.85403 40.9313L6.94403 40.7813L5.64403 40.8243C5.60295 40.8288 5.56281 40.8396 5.52503 40.8563C5.48757 40.873 5.44777 40.8838 5.40703 40.8883C5.27904 40.9023 5.1521 40.9247 5.02703 40.9553C4.85499 40.998 4.67973 41.0264 4.50303 41.0403L4.31103 41.0543L4.21503 41.1083L4.07503 41.1183C3.94578 41.0945 3.82528 41.0365 3.72603 40.9503C3.43936 40.9703 3.26036 40.9347 3.18903 40.8433C3.09072 40.8365 2.99639 40.8018 2.91703 40.7433C2.83818 40.6844 2.7442 40.649 2.64603 40.6413C2.52209 40.6533 2.39717 40.6327 2.28367 40.5814C2.17018 40.5302 2.07205 40.4502 1.99903 40.3493L1.90903 40.4993C1.73932 40.467 1.57412 40.4143 1.41703 40.3423C1.26669 40.1586 1.13941 39.9571 1.03803 39.7423C1.13429 39.7528 1.22331 39.7983 1.28803 39.8703L1.45503 40.1953C1.55103 40.1887 1.59436 40.1213 1.58503 39.9933C1.58036 39.9267 1.4757 39.8057 1.27103 39.6303L1.38403 39.8153C1.30102 39.8021 1.22339 39.7658 1.15994 39.7106C1.09649 39.6555 1.04976 39.5837 1.02503 39.5033C0.958365 39.508 0.920698 39.4463 0.912031 39.3183C0.880031 39.321 0.826031 39.2367 0.750031 39.0653C0.674031 38.894 0.588031 38.6993 0.492031 38.4813C0.407398 38.303 0.353313 38.1116 0.332031 37.9153C0.345297 36.6119 0.840423 35.3595 1.72203 34.3993L1.81203 34.2493L1.98703 33.9963C2.64389 33.1858 3.362 32.4269 4.13503 31.7263L4.31303 31.5223L5.16103 23.7123C5.12778 23.6823 5.08868 23.6594 5.04618 23.6451C5.00368 23.6308 4.9587 23.6254 4.91403 23.6293L4.35303 23.8613C4.28258 23.8629 4.21319 23.8788 4.14907 23.908C4.08495 23.9373 4.02744 23.9792 3.98003 24.0313C3.77897 24.0921 3.57008 24.1231 3.36003 24.1233C3.18851 24.1281 3.01824 24.0928 2.86283 24.02C2.70742 23.9473 2.5712 23.8391 2.46503 23.7043C2.26471 23.3255 2.16811 22.9005 2.18503 22.4723C2.16337 22.3227 2.18261 22.17 2.24071 22.0303C2.2988 21.8907 2.3936 21.7694 2.51503 21.6793C2.61103 21.6727 2.6567 21.636 2.65203 21.5693C2.69769 21.4504 2.7633 21.3402 2.84603 21.2433C2.92797 21.1043 3.04394 20.9883 3.18303 20.9063L5.86603 20.0443C5.92242 20.0125 5.97126 19.9688 6.00923 19.9164C6.0472 19.8639 6.0734 19.8039 6.08603 19.7403C6.65003 17.2937 7.18003 15.2423 7.67603 13.5863C8.17203 11.9303 8.51403 10.8553 8.70203 10.3613L8.99003 9.66734C9.10003 9.40334 9.1867 9.26901 9.25003 9.26434C9.50865 9.26643 9.76699 9.28178 10.024 9.31034C10.2793 9.35051 10.5394 9.34848 10.794 9.30434L11.177 9.27734C11.327 9.2479 11.4824 9.26352 11.6235 9.32225C11.7646 9.38098 11.8852 9.48018 11.97 9.60734C12.1589 9.70722 12.3208 9.85118 12.4422 10.027C12.5635 10.2028 12.6407 10.4053 12.667 10.6173L12.643 10.9563L12.65 11.0563L12.609 11.1583C12.533 11.453 12.186 12.5687 11.568 14.5053C11.0933 15.9041 10.7026 17.33 10.398 18.7753L10.313 18.9743L10.32 19.0743C10.3894 19.0272 10.4723 19.0044 10.556 19.0093C13.4575 17.9559 16.187 16.4789 18.656 14.6263C20.7094 13.0063 21.6934 11.5893 21.608 10.3753C21.5637 9.84572 21.3766 9.33802 21.0667 8.90625C20.7568 8.47448 20.3356 8.1348 19.848 7.92334C18.7439 7.34144 17.5198 7.02345 16.272 6.99434L15.171 7.02434C14.7543 7.01435 14.3373 7.02737 13.922 7.06334C11.6976 7.22914 9.52037 7.78919 7.49203 8.71734C5.68232 9.44115 4.07606 10.5947 2.81203 12.0783L2.54903 12.4343C2.48903 12.5343 2.3167 12.5943 2.03203 12.6143C1.96922 12.619 1.90611 12.6108 1.8466 12.5902C1.7871 12.5695 1.73245 12.5369 1.68603 12.4943C1.37718 12.0902 1.22258 11.5892 1.25003 11.0813C1.24803 11.0493 1.29903 10.9733 1.40303 10.8533C1.50703 10.7333 1.5567 10.6417 1.55203 10.5783L1.52503 10.1953C1.53826 9.78461 1.64448 9.38222 1.83571 9.01847C2.02693 8.65473 2.29818 8.3391 2.62903 8.09534C5.5588 5.42718 9.33906 3.88319 13.299 3.73734C13.7147 3.70257 14.132 3.68922 14.549 3.69734C16.9454 3.61954 19.3108 4.25657 21.344 5.52734C22.2278 6.0312 22.9741 6.74468 23.5171 7.60493C24.0602 8.46518 24.3833 9.44578 24.458 10.4603L24.492 10.9393C24.4605 12.0334 24.1456 13.1005 23.578 14.0363C23.0343 14.9858 22.3475 15.8459 21.542 16.5863C20.6812 17.3473 19.7443 18.0175 18.746 18.5863C17.654 19.225 16.773 19.7043 16.103 20.0243C15.433 20.3443 14.7397 20.6417 14.023 20.9163C16.7099 21.1123 19.2635 22.1633 21.31 23.9153C24.078 23.154 26.6187 22.5627 28.932 22.1413ZM19.87 26.7763C17.8195 27.5369 15.8317 28.457 13.925 29.5283C11.153 30.993 9.15303 32.1027 7.92503 32.8573C7.90801 33.0706 7.87458 33.2822 7.82503 33.4903C7.75003 33.8892 7.71386 34.2945 7.71703 34.7003L7.73703 34.9883C7.73434 35.1316 7.70342 35.273 7.64603 35.4043C7.59354 35.5207 7.5614 35.6451 7.55103 35.7723C7.55125 35.8248 7.57208 35.8751 7.60903 35.9123L7.67103 36.1003C7.67248 36.1068 7.67238 36.1135 7.67073 36.12C7.66908 36.1264 7.66593 36.1324 7.66154 36.1373C7.65715 36.1423 7.65165 36.1462 7.64547 36.1486C7.6393 36.151 7.63264 36.152 7.62603 36.1513L7.53003 36.2063C7.5387 36.3343 7.5097 36.4007 7.44303 36.4053C7.42403 36.4061 7.40508 36.403 7.38735 36.3961C7.36963 36.3892 7.35352 36.3787 7.34003 36.3653C7.32672 36.3516 7.31068 36.3407 7.29295 36.3335C7.27522 36.3263 7.25618 36.3228 7.23703 36.3233C7.2457 36.4513 7.26603 36.514 7.29803 36.5113C7.25717 36.5126 7.21636 36.5075 7.17703 36.4963C7.13743 36.4847 7.09628 36.4794 7.05503 36.4803C7.0577 36.5123 6.97903 36.534 6.81903 36.5453C6.7373 36.5419 6.65601 36.5315 6.57603 36.5143C6.49638 36.4972 6.41543 36.4868 6.33403 36.4833C5.93757 36.1977 5.57519 35.8676 5.25403 35.4993L4.60403 34.4863C4.21656 34.7774 3.87594 35.1261 3.59403 35.5203C3.29535 35.8741 3.03988 36.2621 2.83303 36.6763L2.71303 37.0223C2.64032 37.1751 2.60273 37.3422 2.60303 37.5113C2.63836 38.022 3.25036 38.284 4.43903 38.2973L4.82203 38.2703C6.55107 38.1176 8.2552 37.7556 9.89703 37.1923C11.6277 36.6475 13.2881 35.9007 14.844 34.9673C19.0374 32.3653 20.7127 29.635 19.87 26.7763ZM15.672 26.0073C15.8594 25.8927 16.0661 25.8131 16.282 25.7723L16.986 25.5303C17.2904 25.304 17.6411 25.1479 18.013 25.0733C16.9464 24.502 15.776 24.1504 14.571 24.0393C13.4205 23.8572 12.2552 23.7856 11.091 23.8253L10.132 23.8933C9.87544 23.9069 9.62031 23.9406 9.36903 23.9943C9.0797 25.363 8.81003 26.762 8.56003 28.1913L8.31603 29.5123L8.28803 29.8023C8.30185 29.8041 8.31588 29.8025 8.32891 29.7975C8.34194 29.7926 8.35355 29.7846 8.36274 29.7741C8.37192 29.7636 8.3784 29.7511 8.38159 29.7375C8.38478 29.7239 8.38459 29.7098 8.38103 29.6963C8.4335 29.6961 8.48378 29.6753 8.52103 29.6383L8.87803 29.2283C8.88185 29.2952 8.86986 29.362 8.84303 29.4233C8.93675 29.4001 9.01863 29.3431 9.07303 29.2633L9.30903 29.1983L9.06203 29.1153C9.08937 29.046 9.2307 29.0027 9.48603 28.9853C9.54897 28.9811 9.61038 28.9641 9.66646 28.9352C9.72253 28.9063 9.77208 28.8662 9.81203 28.8173C9.8367 28.7193 9.92903 28.6647 10.089 28.6533L10.28 28.6403C10.1735 28.6888 10.0797 28.7614 10.006 28.8523C10.1205 28.8517 10.2336 28.8271 10.338 28.7803C10.6256 28.473 10.9668 28.2209 11.345 28.0363C11.7025 27.7809 12.0931 27.5754 12.506 27.4253C12.5196 27.4216 12.5338 27.4212 12.5475 27.4243C12.5612 27.4274 12.5739 27.4339 12.5845 27.4431C12.5951 27.4523 12.6033 27.464 12.6082 27.4771C12.6132 27.4903 12.6149 27.5044 12.613 27.5183C12.645 27.5157 12.698 27.4717 12.772 27.3863C12.821 27.3163 12.8952 27.2679 12.979 27.2513L13.024 27.2003C13.088 27.1637 13.1574 27.1253 13.232 27.0853C13.2963 27.0537 13.3657 27.0341 13.437 27.0273C13.6556 27.0296 13.8694 26.9639 14.049 26.8393C14.0893 26.7361 14.1581 26.6463 14.2473 26.5805C14.3365 26.5147 14.4425 26.4754 14.553 26.4673C14.6491 26.4775 14.7381 26.5227 14.803 26.5943C14.8918 26.5905 14.9788 26.5686 15.0588 26.5299C15.1388 26.4912 15.21 26.4366 15.268 26.3693C15.1967 26.3073 15.1467 26.2773 15.118 26.2793C15.264 26.2192 15.4037 26.1449 15.535 26.0573C15.5728 26.024 15.6217 26.0062 15.672 26.0073ZM10.762 29.4333L10.665 29.4883L10.568 29.5433L10.377 29.5563C10.1492 29.5892 9.94236 29.7071 9.79803 29.8863C9.60403 30.0923 9.47503 30.1973 9.41103 30.2013L9.79403 30.1743L9.32903 30.4003L9.52003 30.3863C9.81336 30.3663 10.2284 30.0483 10.765 29.4323L10.762 29.4333ZM13.915 27.7193L13.49 27.8493C13.4587 27.852 13.428 27.8877 13.398 27.9563C13.336 28.0277 13.2904 28.0643 13.261 28.0663L13.555 28.1463C13.5923 28.1094 13.6426 28.0886 13.695 28.0883C13.7015 28.0867 13.7082 28.0867 13.7147 28.0882C13.7212 28.0897 13.7272 28.0927 13.7323 28.097C13.7374 28.1013 13.7413 28.1068 13.7439 28.1129C13.7465 28.1191 13.7475 28.1257 13.747 28.1323L13.802 28.2293C13.7927 28.1842 13.794 28.1376 13.8056 28.093C13.8172 28.0484 13.839 28.0071 13.8692 27.9723C13.8993 27.9375 13.9371 27.9101 13.9796 27.8922C14.022 27.8744 14.068 27.8666 14.114 27.8693L14.439 27.7023L14.473 27.5073C14.3797 27.546 14.2787 27.5933 14.17 27.6493C14.0913 27.6876 14.0062 27.7113 13.919 27.7193H13.915ZM10.013 18.7023L9.94003 19.0923C10.2906 18.1997 10.5643 17.2786 10.758 16.3393L10.631 16.5893L10.205 18.0633C10.1334 18.1282 10.0882 18.2172 10.078 18.3133L10.081 18.3603L10.136 18.4573L10.013 18.7023ZM18.675 26.9043L19.374 26.5663C19.3126 26.5399 19.2458 26.5282 19.179 26.5323C19.147 26.5343 19.1024 26.5853 19.045 26.6853L18.891 26.5523C18.889 26.5203 18.9337 26.469 19.025 26.3983L19.121 26.3433C18.9999 26.3403 18.8823 26.3844 18.793 26.4663C18.711 26.5852 18.6024 26.6834 18.476 26.7533C18.3496 26.8232 18.2411 26.9215 18.159 27.0403C18.2478 26.9947 18.3434 26.9637 18.442 26.9483C18.566 26.9217 18.6437 26.907 18.675 26.9043ZM1.67803 39.8863L1.84203 40.1643C2.10439 40.279 2.38677 40.3408 2.67303 40.3463L2.97103 40.4703C2.96162 40.4202 2.94187 40.3725 2.91303 40.3303C2.91459 40.3106 2.91149 40.2907 2.90398 40.2723C2.89648 40.2539 2.88476 40.2376 2.86979 40.2245C2.85482 40.2115 2.837 40.2022 2.81776 40.1973C2.79853 40.1924 2.77841 40.1921 2.75903 40.1963C2.60151 40.1488 2.43753 40.1262 2.27303 40.1293C2.20472 40.1396 2.13489 40.1291 2.07264 40.0991C2.01039 40.0692 1.95861 40.0212 1.92403 39.9613C1.90503 39.9621 1.88608 39.959 1.86835 39.9521C1.85063 39.9452 1.83452 39.9347 1.82103 39.9213C1.77149 39.9194 1.72285 39.9075 1.67803 39.8863ZM5.80303 41.0413L5.13303 41.0883C5.34437 40.9901 5.56387 40.9105 5.78903 40.8503L6.79903 40.8303C6.67026 40.8437 6.54304 40.8692 6.41903 40.9063C6.27925 40.9463 6.1359 40.9724 5.99103 40.9843L5.80303 41.0413ZM15.923 27.4783L15.585 27.4543C15.5937 27.5817 15.7417 27.6353 16.029 27.6153C16.4124 27.5887 16.5997 27.5113 16.591 27.3833L15.924 27.4823L15.923 27.4783ZM15.252 20.0193L15.047 19.8413L14.76 19.8613L14.728 20.1043C14.7701 20.1358 14.8229 20.1495 14.875 20.1423C14.942 20.1372 15.0067 20.1163 15.064 20.0813C15.1322 20.0844 15.1991 20.0624 15.252 20.0193ZM13.264 38.9813L12.881 39.0083C12.8411 39.0569 12.7917 39.0967 12.7358 39.1254C12.6799 39.1541 12.6187 39.1711 12.556 39.1753L12.289 39.4833L12.337 39.4803L12.433 39.4253L13.264 38.9813ZM22.074 14.9683C22.0828 15.0502 22.0726 15.1331 22.044 15.2103C22.0385 15.2584 22.0158 15.3028 21.98 15.3353C21.9342 15.3877 21.8802 15.4323 21.82 15.4673C21.7598 15.5025 21.713 15.5567 21.687 15.6213C21.689 15.6527 21.758 15.6077 21.894 15.4863C22.03 15.365 22.113 15.287 22.143 15.2523C22.2594 15.2134 22.369 15.1567 22.468 15.0843L22.273 15.0503C22.2017 15.0372 22.1339 15.0092 22.074 14.9683ZM10.564 29.3023C10.6086 29.2999 10.6522 29.2884 10.6921 29.2684C10.732 29.2485 10.7674 29.2205 10.796 29.1863C10.7874 29.0583 10.735 28.9977 10.639 29.0043C10.6004 29.0025 10.5622 29.0123 10.5292 29.0324C10.4962 29.0526 10.47 29.0821 10.454 29.1173L10.368 29.3163L10.371 29.3643L10.468 29.3093L10.564 29.3023ZM13.247 28.4403C13.2878 28.4358 13.3276 28.425 13.365 28.4083C13.4181 28.3875 13.4741 28.3754 13.531 28.3723L13.424 28.2793L13.374 28.2353C13.2869 28.2511 13.2061 28.2914 13.141 28.3513C13.0674 28.4058 12.9991 28.4671 12.937 28.5343C12.8924 28.5857 12.8857 28.61 12.917 28.6073C12.9803 28.6043 13.0422 28.5882 13.099 28.5602C13.1558 28.5322 13.2062 28.4927 13.247 28.4443V28.4403ZM10.604 40.1793L10.364 40.1963C10.3278 40.2341 10.2843 40.2641 10.2362 40.2847C10.1881 40.3053 10.1364 40.3161 10.084 40.3163C10.0338 40.3258 9.98617 40.3455 9.94403 40.3743L9.75903 40.4873L9.66303 40.5423L10.18 40.3623L10.604 40.1793ZM22.074 14.9683C22.0576 14.886 22.0688 14.8006 22.106 14.7253C21.98 14.766 21.9204 14.8343 21.927 14.9303C21.9297 14.9623 21.9084 14.9973 21.863 15.0353C21.8117 15.0757 21.758 15.1127 21.702 15.1463L21.609 15.2533C21.7794 15.1861 21.9368 15.0896 22.074 14.9683ZM9.04703 30.3233C8.98537 30.3271 8.92626 30.3494 8.8774 30.3872C8.82854 30.425 8.79217 30.4766 8.77303 30.5353C9.08303 30.3853 9.24736 30.2133 9.26603 30.0193C9.26803 30.0513 9.23137 30.102 9.15603 30.1713C9.0807 30.2407 9.04403 30.2913 9.04603 30.3233H9.04703ZM4.66003 41.2223L5.03603 41.0953C5.0707 41.1247 5.04003 41.1603 4.94403 41.2023C4.88672 41.2373 4.82196 41.2582 4.75503 41.2633L4.22803 41.3003L4.60803 41.2253L4.66003 41.2223ZM17.652 26.7313L17.378 26.9433C17.522 26.908 17.6639 26.8646 17.803 26.8133C17.7838 26.8141 17.7646 26.8109 17.7467 26.8038C17.7288 26.7968 17.7125 26.7861 17.699 26.7723L17.652 26.7313ZM5.43403 40.5903L5.19803 40.6543L4.91103 40.6743C5.02075 40.706 5.13585 40.7145 5.24903 40.6993C5.37703 40.69 5.4387 40.6533 5.43403 40.5893V40.5903ZM4.92103 40.8183L4.72903 40.8323C4.67885 40.8418 4.63117 40.8615 4.58903 40.8903L5.01903 40.8603L4.92103 40.8183ZM18.112 25.7403L18.297 25.6273C18.425 25.618 18.4877 25.5973 18.485 25.5653L18.294 25.5793L18.112 25.7403ZM28.25 30.9463L28.575 30.7793C28.7207 30.8482 28.879 30.8863 29.04 30.8913C29.1804 30.8972 29.3195 30.9207 29.454 30.9613C29.6894 31.106 29.8127 31.258 29.824 31.4173C29.9098 31.6119 29.9583 31.8209 29.967 32.0333C30.0274 32.5606 29.9125 33.093 29.64 33.5483C29.5431 33.6902 29.4211 33.8133 29.28 33.9113L28.448 34.4023C28.326 34.4469 28.1978 34.4722 28.068 34.4773C27.6561 34.5062 27.2497 34.3702 26.938 34.0993C26.7733 33.967 26.6385 33.8013 26.5425 33.6131C26.4464 33.4248 26.3914 33.2184 26.381 33.0073C26.3471 32.7448 26.3706 32.4781 26.4501 32.2256C26.5296 31.9731 26.6631 31.7409 26.8413 31.5452C27.0195 31.3495 27.2382 31.1949 27.4821 31.0921C27.7261 30.9894 27.9895 30.941 28.254 30.9503L28.25 30.9463ZM57.475 34.3843L57.725 33.8373C57.723 33.8053 57.6307 33.86 57.448 34.0013L57.358 34.1513L56.698 37.0863L56.399 37.6363L56.119 37.0793L56.033 37.2773L55.893 37.3353C55.8856 37.4039 55.8659 37.4706 55.835 37.5323L55.732 37.7803L55.691 37.8833L55.882 37.8703C55.9487 37.8657 55.9854 37.911 55.992 38.0063C55.9651 38.032 55.9435 38.0629 55.9288 38.0971C55.914 38.1313 55.9062 38.1681 55.906 38.2053C55.9098 38.2189 55.9101 38.2331 55.907 38.2468C55.9039 38.2605 55.8975 38.2732 55.8883 38.2838C55.8791 38.2944 55.8674 38.3026 55.8542 38.3076C55.8411 38.3125 55.827 38.3142 55.813 38.3123C55.8064 38.2163 55.723 38.174 55.563 38.1853C55.5128 38.1948 55.4652 38.2145 55.423 38.2433C55.3809 38.2722 55.3332 38.2919 55.283 38.3013L55.19 38.4083L55.093 38.4623C55.0952 38.4937 55.1069 38.5236 55.1266 38.5481C55.1462 38.5726 55.1729 38.5904 55.203 38.5993C55.2077 38.666 55.1624 38.7027 55.067 38.7093L55.022 38.7603C54.9905 38.8024 54.9769 38.8553 54.984 38.9073C54.9887 38.974 54.8954 39.014 54.704 39.0273C54.3527 39.052 54.1694 38.9527 54.154 38.7293L53.867 38.0753C53.8486 37.9148 53.8533 37.7525 53.881 37.5933C54.051 36.8107 54.592 34.2293 55.504 29.8493C56.416 25.4693 57.1034 22.1503 57.566 19.8923C56.11 20.187 54.4844 20.5737 52.689 21.0523C51.8377 21.305 50.755 21.6537 49.441 22.0983C47.649 28.129 46.3697 32.9993 45.603 36.7093C45.351 37.7273 44.9217 38.2573 44.315 38.2993C43.9701 38.5356 43.5946 38.724 43.199 38.8593C43.0052 38.8319 42.8155 38.7809 42.634 38.7073C42.3779 38.6097 42.1051 38.5632 41.831 38.5703C41.4157 38.5997 41.1944 38.423 41.167 38.0403C41.1647 37.8936 41.1788 37.747 41.209 37.6033C41.2365 37.4758 41.2516 37.3458 41.254 37.2153L41.494 36.5243C42.204 32.9123 43.0274 29.549 43.964 26.4343L44.782 23.6813C43.6592 24.2109 42.5913 24.85 41.594 25.5893C41.4763 25.6793 41.3705 25.7838 41.279 25.9003C41.0239 26.0642 40.7344 26.1668 40.433 26.2003C40.422 26.2635 40.3878 26.3202 40.3371 26.3594C40.2864 26.3987 40.2229 26.4175 40.159 26.4123C39.9677 26.4257 39.8677 26.3683 39.859 26.2403L39.999 26.1823C39.502 26.0113 39.0736 25.684 38.778 25.2493L38.671 25.1563C38.6417 25.1055 38.6046 25.0596 38.561 25.0203C38.5518 24.9243 38.5371 24.8288 38.517 24.7343C38.497 24.6399 38.4823 24.5444 38.473 24.4483C38.5277 24.3259 38.5527 24.1923 38.546 24.0583C39.1747 22.955 41.5907 21.7103 45.794 20.3243C48.254 12.811 51.026 7.24367 54.11 3.62234C55.0543 2.52123 56.2231 1.63475 57.538 1.02234C57.8092 0.909094 58.0969 0.840539 58.39 0.819341C58.8177 0.818371 59.2338 0.958239 59.574 1.21734C59.9522 1.4524 60.2834 1.75552 60.551 2.11134C60.5624 2.27134 60.716 2.40501 61.012 2.51234C61.2444 2.66323 61.4446 2.8586 61.6011 3.08721C61.7577 3.31581 61.8674 3.57313 61.924 3.84434C62.0534 4.73434 62.1347 5.41867 62.168 5.89734C62.2929 9.63164 61.9899 13.368 61.265 17.0333L63.273 16.8923C64.071 16.8363 64.5977 17.024 64.853 17.4553C64.9669 17.6063 65.0894 17.7506 65.22 17.8873C65.3234 17.992 65.3924 18.0593 65.427 18.0893L65.53 18.1293C65.5174 18.1959 65.4916 18.2593 65.4541 18.3158C65.4167 18.3723 65.3684 18.4207 65.312 18.4583C65.1993 18.5421 65.0741 18.6075 64.941 18.6523C64.7939 18.6984 64.6434 18.7331 64.491 18.7563C64.3164 18.785 64.213 18.8003 64.181 18.8023L60.844 19.2773C60.644 20.5427 60.2974 22.348 59.804 24.6933C59.3107 27.0387 58.9837 28.6663 58.823 29.5763L58.729 30.3043C58.6164 30.9863 58.5364 31.4413 58.489 31.6693C58.3583 31.9299 58.2798 32.2136 58.258 32.5043C58.1694 32.7384 58.1217 32.9861 58.117 33.2363C57.925 33.6161 57.8224 34.0348 57.817 34.4603C57.7502 34.8011 57.6614 35.1371 57.551 35.4663C57.4472 35.7604 57.3719 36.0638 57.326 36.3723L57.072 36.8723C57.0054 36.8763 56.9644 36.7667 56.949 36.5433C56.969 36.3813 57.004 36.1947 57.054 35.9833C57.0882 35.8631 57.1129 35.7404 57.128 35.6163L57.166 35.4693L57.475 34.3843ZM59.16 3.50434C56.1354 5.70967 53.2254 10.9057 50.43 19.0923C51.8476 18.6775 53.2854 18.3357 54.738 18.0683L55.218 18.0353C55.2613 18.0277 55.3015 18.0079 55.334 17.9783C55.3667 17.9491 55.4069 17.9297 55.45 17.9223C57.0014 17.621 57.841 17.4657 57.969 17.4563C58.8473 13.2065 59.3336 8.88506 59.422 4.54634L59.412 3.72834C59.3905 3.66576 59.3525 3.61014 59.302 3.56734C59.2354 3.49401 59.187 3.47467 59.157 3.50934L59.16 3.50434ZM58.843 27.1153C58.6941 27.5036 58.6247 27.9178 58.639 28.3333L58.599 28.4363C58.5854 28.4497 58.5748 28.4658 58.5677 28.4835C58.5607 28.5013 58.5574 28.5203 58.558 28.5393C58.6534 28.5327 58.6987 28.496 58.694 28.4293C58.7455 28.3227 58.7719 28.2057 58.771 28.0873L59.49 24.6193C59.3269 24.943 59.221 25.2925 59.177 25.6523C59.1321 25.7066 59.0986 25.7694 59.0787 25.8369C59.0588 25.9045 59.0527 25.9754 59.061 26.0453C59.0311 26.0785 59.0083 26.1174 58.994 26.1597C58.9797 26.202 58.9743 26.2468 58.978 26.2913L58.985 26.3913C58.9714 26.4047 58.9608 26.4208 58.9537 26.4385C58.9467 26.4563 58.9434 26.4753 58.944 26.4943C58.9383 26.7069 58.903 26.9176 58.839 27.1203L58.843 27.1153ZM55.405 37.1293L55.735 36.3353C55.7324 36.304 55.683 36.2917 55.587 36.2983C55.5204 36.303 55.46 36.3553 55.406 36.4553L55.32 36.6533C55.16 36.6647 55.089 36.798 55.107 37.0533L55.069 37.2003C55.1357 37.1957 55.179 37.1287 55.199 36.9993L55.329 36.7973C55.3392 36.9119 55.3634 37.0247 55.401 37.1333L55.405 37.1293ZM57.915 33.1543C57.9305 32.7962 57.9695 32.4394 58.032 32.0863C58.0298 31.9399 58.0439 31.7937 58.074 31.6503C58.1073 31.4751 58.1191 31.2964 58.109 31.1183C57.7944 32.585 57.6244 33.366 57.599 33.4613C57.7137 33.2633 57.8187 33.161 57.914 33.1543H57.915ZM58.555 29.9323C58.5383 29.8501 58.5492 29.7647 58.586 29.6893C58.5339 29.6965 58.4811 29.6828 58.439 29.6513L58.515 29.3093C58.5657 29.0807 58.6014 28.9017 58.622 28.7723L58.492 28.9733L58.495 29.0213L58.354 29.7533C58.3506 29.8351 58.3402 29.9164 58.323 29.9963C58.303 30.0917 58.2936 30.1889 58.295 30.2863L58.353 30.4273C58.3521 30.3356 58.3695 30.2445 58.4042 30.1595C58.4389 30.0745 58.4902 29.9973 58.555 29.9323ZM55.685 37.0653C55.6131 37.0761 55.5455 37.1063 55.4895 37.1527C55.4335 37.199 55.3911 37.2597 55.367 37.3283C55.3784 37.4883 55.4477 37.5637 55.575 37.5543C55.589 37.5562 55.6031 37.5545 55.6162 37.5496C55.6294 37.5446 55.6411 37.5364 55.6503 37.5258C55.6595 37.5152 55.6659 37.5025 55.669 37.4888C55.6721 37.4751 55.6718 37.4609 55.668 37.4473C55.7147 37.4266 55.7529 37.3905 55.776 37.3449C55.7991 37.2994 55.8059 37.2473 55.795 37.1973C55.7904 37.1687 55.7537 37.1247 55.685 37.0653ZM59.548 21.4383C59.5479 21.644 59.4956 21.8464 59.396 22.0263C59.526 22.049 59.6464 21.7037 59.757 20.9903L59.627 21.1913C59.5878 21.269 59.5608 21.3524 59.547 21.4383H59.548ZM60.632 16.3073C60.6709 16.1821 60.6781 16.0491 60.653 15.9203C60.445 16.1603 60.3434 16.312 60.348 16.3753L60.32 16.6653L60.432 16.5383L60.587 16.3583L60.632 16.3073ZM55.605 35.9143L55.806 36.0443L55.79 35.8053C55.7863 35.7437 55.764 35.6846 55.7262 35.6357C55.6884 35.5868 55.6368 35.5505 55.578 35.5313C55.5428 35.5898 55.5304 35.6592 55.543 35.7263L55.359 35.8393L55.506 35.8773C55.5694 35.8707 55.6024 35.883 55.605 35.9143ZM56.793 30.2033L56.727 30.6893L56.682 30.7393L56.702 31.0273C56.7087 31.1233 56.728 31.17 56.76 31.1673L56.885 30.1973C56.8759 30.1154 56.8539 30.0355 56.82 29.9603C56.838 30.0421 56.8286 30.1275 56.793 30.2033ZM59.815 23.2513L59.682 23.4053C59.6567 23.5033 59.6307 23.6093 59.604 23.7233C59.5855 23.7953 59.5744 23.8691 59.571 23.9433L59.629 24.0833C59.7317 23.8151 59.7957 23.5336 59.819 23.2473L59.815 23.2513ZM54.823 37.1243L54.833 37.2683L54.789 37.3193C54.8005 37.3969 54.7963 37.476 54.7768 37.5519C54.7572 37.6278 54.7226 37.699 54.675 37.7613C54.6806 37.798 54.6935 37.8332 54.7129 37.8648C54.7323 37.8964 54.7578 37.9238 54.788 37.9453L54.895 37.4083C54.8923 37.3095 54.8677 37.2125 54.823 37.1243ZM56.721 35.3543L56.748 35.7383C56.7419 35.8377 56.7656 35.9366 56.816 36.0223C56.8115 35.9578 56.8148 35.893 56.826 35.8293C56.8361 35.7813 56.8408 35.7324 56.84 35.6833L56.81 35.2533C56.8127 35.2663 56.8123 35.2796 56.809 35.2924C56.8056 35.3052 56.7993 35.317 56.7905 35.3269C56.7818 35.3368 56.7709 35.3445 56.7586 35.3494C56.7464 35.3544 56.7332 35.3564 56.72 35.3553L56.721 35.3543ZM61.683 10.6963L61.696 10.8883L61.878 10.7313L61.82 10.5913C61.724 10.6 61.6784 10.635 61.683 10.6963ZM61.405 10.8603L61.463 11.0003L61.556 10.8933L61.597 10.7903L61.539 10.6503C61.441 10.6623 61.3964 10.7323 61.405 10.8603ZM55.705 34.6073C55.7 34.5408 55.6795 34.4764 55.645 34.4193C55.6179 34.4449 55.5962 34.4758 55.5812 34.51C55.5663 34.5442 55.5584 34.581 55.558 34.6183L55.571 34.8093C55.663 34.7067 55.708 34.6393 55.706 34.6073H55.705ZM58.843 29.2853C58.8167 29.2834 58.7903 29.2875 58.7658 29.2976C58.7414 29.3076 58.7196 29.3232 58.7022 29.3431C58.6849 29.3629 58.6724 29.3866 58.6657 29.4122C58.6591 29.4377 58.6585 29.4645 58.664 29.4903L58.581 29.7363C58.6782 29.5908 58.767 29.4399 58.847 29.2843L58.843 29.2853ZM61.222 12.4133L61.033 12.4753L61.047 12.6663C61.1424 12.6597 61.1877 12.623 61.183 12.5563L61.222 12.4133ZM60.264 20.0383C60.232 20.041 60.201 20.0767 60.171 20.1453L60.133 20.2923C60.1349 20.3114 60.1408 20.3299 60.1503 20.3466C60.1598 20.3633 60.1726 20.3779 60.188 20.3893L60.192 20.4373C60.2668 20.3187 60.2939 20.1762 60.268 20.0383H60.264ZM55.25 34.3523L55.188 34.8853C55.2547 34.8807 55.2834 34.8147 55.274 34.6873L55.25 34.3523ZM58.299 26.3393C58.2972 26.488 58.2736 26.6355 58.229 26.7773C58.2684 26.7386 58.2997 26.6924 58.321 26.6414C58.3423 26.5904 58.3532 26.5356 58.353 26.4803C58.3462 26.4304 58.3292 26.3824 58.303 26.3393H58.299ZM58.458 30.6613C58.4667 30.7887 58.4867 30.8513 58.518 30.8493L58.598 30.5543L58.458 30.6613ZM67.31 31.9653L67.33 32.2533C67.2903 32.4884 67.2259 32.7187 67.138 32.9403L67.189 32.9853C67.2117 33.3047 67.175 33.4677 67.079 33.4743L66.792 33.4943C66.7062 33.5448 66.6074 33.5684 66.508 33.5623C66.348 33.5737 66.267 33.5633 66.265 33.5313L65.978 33.5513C65.9774 33.5578 65.9784 33.5644 65.9808 33.5705C65.9831 33.5766 65.9869 33.582 65.9918 33.5864C65.9966 33.5907 66.0024 33.5939 66.0087 33.5956C66.015 33.5974 66.0216 33.5976 66.028 33.5963C66.0831 33.6181 66.1344 33.6485 66.18 33.6863L66.515 33.6623C66.2228 33.7803 65.8972 33.786 65.601 33.6783C65.4679 33.6684 65.3436 33.6084 65.253 33.5103C64.5577 33.2057 64.1544 32.945 64.043 32.7283C63.8805 32.5463 63.78 32.3172 63.756 32.0743C63.6648 31.04 63.6641 29.9998 63.754 28.9653C63.8434 28.1727 64.115 26.6693 64.569 24.4553C65.0424 22.0473 65.824 18.7753 66.914 14.6393C68.004 10.5033 68.7427 7.53901 69.13 5.74634L69.37 5.05534C69.4091 4.99141 69.4632 4.93808 69.5278 4.90006C69.5923 4.86204 69.6652 4.8405 69.74 4.83734C69.9777 4.86653 70.2096 4.93125 70.428 5.02934C70.6545 5.09998 70.8714 5.19804 71.074 5.32134C71.5667 5.47934 71.824 5.71801 71.846 6.03734L71.926 7.18734C71.9526 7.96399 71.8946 8.74123 71.753 9.50534C71.6764 10.2467 71.5184 11.1967 71.279 12.3553C71.0397 13.514 70.8137 14.5247 70.601 15.3873C70.3884 16.2527 70.0997 17.38 69.735 18.7693C69.3704 20.1587 69.137 21.0657 69.035 21.4903L69.048 21.6823C71.7578 19.0873 74.2974 16.3202 76.651 13.3983C76.6934 13.2998 76.7644 13.2163 76.8548 13.1585C76.9452 13.1007 77.0508 13.0714 77.158 13.0743C77.2798 13.0727 77.3998 13.1037 77.5057 13.164C77.6115 13.2243 77.6993 13.3117 77.76 13.4173C77.915 13.5851 78.0139 13.7969 78.043 14.0233C78.0499 14.2813 77.9841 14.536 77.853 14.7583C77.4005 15.6578 76.8824 16.5228 76.303 17.3463C75.863 17.939 75.0637 18.9017 73.905 20.2343C72.6435 21.7417 71.2606 23.143 69.77 24.4243C69.7337 24.4995 69.7232 24.5846 69.74 24.6663C69.7679 24.8172 69.8268 24.9605 69.913 25.0873L70.138 25.5533L70.91 26.9433C72.2 29.3267 73.3084 30.4857 74.235 30.4203C74.3685 30.4085 74.4974 30.3653 74.611 30.2943C75.2581 30.0901 75.9307 29.978 76.609 29.9613C76.833 29.946 76.9504 30.018 76.961 30.1773C76.9082 30.1912 76.8604 30.2196 76.823 30.2593C76.7717 30.3075 76.706 30.3373 76.636 30.3443C76.2367 30.3684 75.8583 30.5311 75.566 30.8043C75.4883 30.9609 75.362 31.0883 75.206 31.1673C75.1394 31.172 75.107 31.1903 75.109 31.2223C75.047 31.293 75.0014 31.3297 74.972 31.3323C74.4372 31.6776 73.8183 31.8705 73.182 31.8903C72.8082 31.9175 72.4325 31.8789 72.072 31.7763C70.076 31.2423 68.6534 29.4967 67.804 26.5393C67.5232 28.3355 67.3595 30.148 67.314 31.9653H67.31ZM66.658 28.8343L66.634 28.4983C66.5087 28.5397 66.4584 28.736 66.483 29.0873L66.359 29.3843L66.373 29.5763L66.338 29.7713L66.383 29.7203C66.4339 29.6911 66.4798 29.6539 66.519 29.6103L66.516 29.5623C66.5296 29.5489 66.5403 29.5329 66.5473 29.5151C66.5544 29.4974 66.5577 29.4784 66.557 29.4593L66.502 29.3623L66.49 29.1823C66.62 29.1737 66.6774 29.0573 66.662 28.8333L66.658 28.8343ZM65.893 30.2843C65.895 30.3157 65.8494 30.3523 65.756 30.3943L65.821 30.6293L65.971 30.7193C65.9584 30.6522 65.9708 30.5828 66.006 30.5243L66.099 30.4173C66.0324 30.422 65.9957 30.3767 65.989 30.2813L65.969 29.9933C65.937 29.996 65.9244 30.045 65.931 30.1403L65.893 30.2843ZM67.089 23.2643C67.0959 23.3161 67.0823 23.3685 67.051 23.4103L67.068 23.6503C67.1347 23.6457 67.172 23.603 67.18 23.5223C67.188 23.4417 67.209 23.4 67.243 23.3973L67.175 23.1133L67.089 23.2643ZM66.831 27.1333C66.8301 27.0685 66.8334 27.0037 66.841 26.9393C66.8489 26.8753 66.8526 26.8108 66.852 26.7463L66.766 26.9453C66.7344 27.0551 66.7259 27.1702 66.741 27.2833C66.7688 27.2707 66.7922 27.25 66.8082 27.224C66.8243 27.198 66.8322 27.1679 66.831 27.1373V27.1333ZM67.516 23.8593L67.579 23.3253C67.4919 23.5434 67.4429 23.7747 67.434 24.0093C67.4914 23.944 67.5187 23.8953 67.516 23.8633V23.8593ZM75.987 16.2853C76.0185 16.1752 76.0267 16.0598 76.011 15.9463C75.9608 15.9558 75.9132 15.9755 75.871 16.0043C75.9293 16.0901 75.9688 16.1872 75.987 16.2893V16.2853ZM65.15 27.9293L65.072 27.5013C65.0697 27.6654 65.0475 27.8286 65.006 27.9873L65.15 27.9293ZM65.795 24.0803L65.616 24.2853C65.6547 24.3787 65.6914 24.4243 65.726 24.4223C65.7368 24.3059 65.7614 24.1911 65.799 24.0803H65.795ZM65.575 30.5463C65.639 30.5103 65.72 30.2963 65.818 29.9043C65.7881 29.9375 65.7653 29.9764 65.751 30.0187C65.7367 30.061 65.7313 30.1058 65.735 30.1503L65.575 30.5463ZM67.135 32.2183C67.1674 32.1772 67.1911 32.13 67.2048 32.0795C67.2186 32.029 67.222 31.9762 67.215 31.9243L67.123 32.0313L67.078 32.0813C67.1157 32.1172 67.138 32.1663 67.14 32.2183H67.135ZM88.161 21.0683L87.996 21.4643L88.826 20.2503L88.918 20.1443L89.015 20.0893C89.0112 20.1775 88.9824 20.2628 88.932 20.3353L88.846 20.5343L85.345 26.2193C84.4751 27.7763 83.3112 29.1497 81.918 30.2633C81.4062 30.6179 80.8392 30.8851 80.24 31.0543C79.6654 31.0943 79.3404 31.037 79.265 30.8823C79.0985 30.867 78.9381 30.8121 78.797 30.7223C78.5804 30.609 78.439 30.539 78.373 30.5123C77.3837 30.1323 76.817 28.9203 76.673 26.8763C76.6025 25.7341 76.7173 24.5879 77.013 23.4823C77.3659 22.1522 77.7966 20.8439 78.303 19.5643C78.7259 18.5226 79.093 17.4591 79.403 16.3783C79.4285 16.2287 79.5069 16.0931 79.6241 15.9965C79.7412 15.8999 79.8892 15.8488 80.041 15.8523C80.1292 15.8562 80.2145 15.885 80.287 15.9353C80.3463 15.9782 80.4142 16.0076 80.486 16.0213C81.0672 16.119 81.6142 16.3622 82.076 16.7283C82.1468 16.7941 82.2036 16.8736 82.2428 16.962C82.282 17.0503 82.3028 17.1457 82.304 17.2423C82.3143 17.3621 82.331 17.4813 82.354 17.5993C82.38 17.742 82.395 17.8453 82.399 17.9093L82.413 18.1013C82.1348 19.6842 81.7288 21.242 81.199 22.7593L81.079 23.1053C80.6288 24.6001 80.3332 26.1372 80.197 27.6923L80.179 28.1263C80.233 28.893 80.293 29.274 80.359 29.2693C80.493 29.2574 80.6221 29.2138 80.736 29.1423C81.4003 28.5637 81.9851 27.8995 82.475 27.1673C83.237 26.1347 83.9444 25.1223 84.597 24.1303C85.2497 23.1383 85.994 21.9707 86.83 20.6273C87.6667 19.2853 88.1867 18.4627 88.39 18.1593C88.3753 18.4597 88.3149 18.7561 88.211 19.0383L88.341 18.8363L88.317 19.1753L87.902 20.1193C88.0549 19.8803 88.2326 19.6581 88.432 19.4563L88.302 20.3313L88.398 20.2763L88.491 20.1703L88.161 21.0683ZM82.371 11.9463C82.7796 11.9374 83.1814 12.0517 83.524 12.2743C83.9427 12.5177 84.162 12.783 84.182 13.0703C84.0347 13.5366 83.7646 13.9545 83.4 14.2803C83.2428 14.4442 83.0542 14.5747 82.8455 14.664C82.6367 14.7534 82.4121 14.7997 82.185 14.8003C82.0401 14.8117 81.8944 14.8053 81.751 14.7813C81.3994 14.6866 81.0743 14.5121 80.801 14.2713C80.5982 13.9971 80.475 13.6721 80.445 13.3323C80.4241 13.1616 80.4498 12.9883 80.5193 12.8309C80.5889 12.6735 80.6997 12.5379 80.84 12.4383C81.1226 12.2286 81.4516 12.09 81.799 12.0343C82.1504 11.975 82.342 11.9443 82.374 11.9423L82.371 11.9463ZM83.284 27.6683C83.3066 27.7811 83.2984 27.8979 83.26 28.0063L82.986 28.2183C82.954 28.2203 82.914 28.3353 82.866 28.5633C83.286 28.1493 83.4904 27.8623 83.479 27.7023C83.4771 27.6677 83.4669 27.6341 83.449 27.6043C83.4305 27.5748 83.4195 27.5411 83.417 27.5063L83.284 27.6683ZM79.389 26.3523L79.443 27.1193C79.423 27.2147 79.4136 27.3119 79.415 27.4093C79.4867 27.3445 79.5319 27.2555 79.542 27.1593C79.54 26.6787 79.5347 26.3743 79.526 26.2463L79.389 26.3523ZM78.288 23.6373C78.2369 23.635 78.1869 23.6221 78.141 23.5993C78.013 23.6087 77.925 23.7273 77.877 23.9553L78.027 24.0453C78.0597 24.0427 78.112 23.9827 78.184 23.8653C78.2346 23.7976 78.2701 23.7199 78.288 23.6373ZM79.363 25.9213C79.395 25.9187 79.4077 25.8697 79.401 25.7743L79.384 25.5343C79.3711 25.4674 79.3832 25.398 79.418 25.3393C79.3582 25.3739 79.3102 25.4257 79.2802 25.4879C79.2503 25.5502 79.2398 25.62 79.25 25.6883L79.164 25.8873C79.166 25.9187 79.231 25.93 79.359 25.9213H79.363ZM84.844 25.8253C84.5974 25.9713 84.4774 26.092 84.484 26.1873L84.549 26.4233L84.589 26.3203C84.6445 26.2238 84.6939 26.124 84.737 26.0213C84.7625 25.953 84.7972 25.8884 84.84 25.8293L84.844 25.8253ZM81.824 30.1293L82.139 29.8183C82.1078 29.8536 82.0688 29.881 82.025 29.8983C81.9809 29.9156 81.9415 29.943 81.91 29.9783C81.5034 30.1357 81.3057 30.294 81.317 30.4533C81.5904 30.2733 81.758 30.1653 81.82 30.1293H81.824ZM77.857 23.6193C77.8947 23.5744 77.9251 23.5238 77.947 23.4693L78.009 23.3193C78.0227 23.2879 78.0285 23.2536 78.026 23.2193C78.0276 23.1996 78.0245 23.1797 78.017 23.1613C78.0095 23.1429 77.9978 23.1266 77.9828 23.1135C77.9678 23.1005 77.95 23.0912 77.9308 23.0863C77.9115 23.0814 77.8914 23.0811 77.872 23.0853L77.834 23.2323C77.772 23.3037 77.742 23.3537 77.744 23.3823C77.84 23.3757 77.8894 23.3883 77.892 23.4203L77.851 23.5243L77.857 23.6193ZM79.743 25.7943C79.7753 26.0369 79.7583 26.2835 79.693 26.5193C79.762 26.4474 79.8155 26.3621 79.8504 26.2687C79.8853 26.1754 79.9008 26.0759 79.896 25.9763C79.864 25.9783 79.8274 25.9327 79.786 25.8393L79.743 25.7943ZM79.871 24.8703C79.9025 24.8282 79.9162 24.7754 79.909 24.7233C79.781 24.7327 79.7194 24.7703 79.724 24.8363C79.6971 24.862 79.6755 24.8929 79.6608 24.9271C79.646 24.9613 79.6383 24.9981 79.638 25.0353C79.7299 25.011 79.8098 24.9541 79.863 24.8753L79.871 24.8703ZM84.234 26.6823L84.158 27.0253L84.415 26.5733L84.234 26.6823ZM79.843 25.1613C79.875 25.1593 79.8944 25.206 79.901 25.3013C79.933 25.2993 79.9754 25.216 80.028 25.0513C79.9896 25.056 79.9526 25.0686 79.9193 25.0884C79.8861 25.1082 79.8574 25.1348 79.835 25.1663L79.843 25.1613ZM83.68 26.9613L83.858 26.7573C83.8365 26.7875 83.8091 26.8131 83.7775 26.8325C83.7459 26.8519 83.7107 26.8648 83.674 26.8703C83.6726 26.9143 83.6587 26.9569 83.634 26.9933C83.6094 27.0297 83.5955 27.0724 83.594 27.1163C83.6187 27.1177 83.6434 27.0677 83.668 26.9663L83.68 26.9613ZM98.622 18.3563L98.409 18.7563L98.603 19.4643L98.86 19.0143L98.832 19.3043C98.7941 19.4807 98.7246 19.6487 98.627 19.8003L98.89 20.1183C98.9214 20.1163 98.9667 20.0797 99.026 20.0083L99.123 19.9533C99.0317 20.2486 98.9062 20.5322 98.749 20.7983C98.091 21.9037 97.635 22.497 97.381 22.5783C97.4585 22.619 97.5418 22.6473 97.628 22.6623C97.6854 22.5297 97.7447 22.4613 97.806 22.4573C96.9827 23.9907 96.1094 25.496 95.186 26.9733C93.246 29.966 91.7304 31.7103 90.639 32.2063C90.5335 32.2517 90.4327 32.3073 90.338 32.3723C90.1878 32.4574 90.0187 32.5038 89.846 32.5073C89.7117 32.5222 89.5759 32.4968 89.456 32.4343C89.2204 32.3182 88.9787 32.2148 88.732 32.1243C88.4744 32.0384 88.2298 31.9176 88.005 31.7653C87.7609 31.5519 87.5555 31.2978 87.398 31.0143C87.2483 30.7572 87.132 30.482 87.052 30.1953C86.986 29.9433 86.9277 29.6827 86.877 29.4133C86.8264 29.144 86.7997 28.9937 86.797 28.9623C86.7966 28.7928 86.8342 28.6254 86.907 28.4723C86.9084 28.5712 86.9316 28.6685 86.975 28.7573C87.0433 28.5881 87.065 28.4038 87.038 28.2233C86.97 28.22 86.9031 28.2417 86.85 28.2843C86.8423 28.2411 86.8226 28.2009 86.793 28.1683C86.757 28.1206 86.7361 28.0631 86.733 28.0033C86.7325 27.9309 86.7359 27.8584 86.743 27.7863C86.7508 27.6664 86.7502 27.5461 86.741 27.4263L86.721 27.1383C86.719 27.1063 86.7157 26.946 86.711 26.6573C86.7059 26.3816 86.727 26.1061 86.774 25.8343C86.6855 25.7463 86.627 25.6326 86.607 25.5093C86.5802 25.5707 86.5682 25.6375 86.572 25.7043C86.5236 26.3614 86.522 27.021 86.567 27.6783L86.63 28.5883C86.6687 29.6277 86.9891 30.637 87.557 31.5083C87.3017 31.5263 87.062 31.198 86.838 30.5233C86.6054 29.8068 86.4489 29.0677 86.371 28.3183L86.331 27.7433C86.3209 25.6427 86.595 23.5504 87.146 21.5233C87.4927 20.0553 88.2444 17.275 89.401 13.1823C90.5577 9.08967 91.3737 6.07967 91.849 4.15234C91.9006 4.0342 91.9831 3.93217 92.0878 3.85701C92.1925 3.78186 92.3156 3.73637 92.444 3.72534C92.572 3.71667 92.6737 3.79001 92.749 3.94534C93.1983 4.01559 93.6097 4.23851 93.9139 4.57656C94.218 4.91461 94.3964 5.34715 94.419 5.80134C94.5022 5.92724 94.5474 6.07445 94.549 6.22534C94.5676 6.38618 94.5629 6.54885 94.535 6.70834C93.9935 10.0249 93.2593 13.3071 92.336 16.5383C90.5054 22.925 89.6754 27.3317 89.846 29.7583L89.859 29.9503C89.9817 30.327 90.059 30.5143 90.091 30.5123C90.174 30.4856 90.2522 30.4461 90.323 30.3953C91.3565 29.3564 92.2766 28.2107 93.068 26.9773C94.1747 25.362 95.2514 23.666 96.298 21.8893C97.3447 20.1127 97.9414 19.124 98.088 18.9233C98.284 18.5913 98.4594 18.4037 98.614 18.3603L98.622 18.3563ZM89.304 29.6483L89.254 28.9303C89.3116 28.5958 89.3217 28.2547 89.284 27.9173L89.149 28.7453L89.202 29.5113L89.304 29.6483ZM87.611 21.2423L87.661 20.5173C87.5198 20.8449 87.4304 21.1923 87.396 21.5473L87.581 21.4333L87.611 21.2423ZM89.359 24.2013C89.3617 24.2333 89.376 24.3203 89.402 24.4623C89.4268 24.5966 89.4442 24.7322 89.454 24.8683C89.516 24.797 89.546 24.747 89.544 24.7183L89.531 24.5263C89.5276 24.3619 89.5499 24.1979 89.597 24.0403C89.5688 24.0837 89.5322 24.121 89.4895 24.1502C89.4467 24.1793 89.3987 24.1998 89.348 24.2103L89.359 24.2013ZM89.807 22.3403C89.7557 22.5683 89.6847 22.7017 89.594 22.7403L89.929 22.7163L89.819 22.5803L89.899 22.2853C89.9314 22.2442 89.9551 22.197 89.9688 22.1465C89.9826 22.096 89.986 22.0432 89.979 21.9913C89.907 22.034 89.8457 22.1533 89.795 22.3493L89.807 22.3403ZM91.87 30.4753C91.84 30.5086 91.8171 30.5477 91.8028 30.5902C91.7885 30.6327 91.7831 30.6777 91.787 30.7223L91.43 31.1323C91.462 31.1303 91.53 31.0693 91.634 30.9493C91.738 30.8293 91.802 30.7713 91.826 30.7753C91.8214 30.7087 91.908 30.5743 92.086 30.3723C92.0673 30.3745 92.0492 30.3805 92.0328 30.39C92.0165 30.3995 92.0023 30.4122 91.991 30.4273C91.9434 30.4374 91.8982 30.4567 91.858 30.4843L91.87 30.4753ZM87.309 22.4193C87.2536 22.4464 87.2076 22.4894 87.177 22.5429C87.1463 22.5964 87.1324 22.6579 87.137 22.7193C87.1395 22.7641 87.1511 22.808 87.1712 22.848C87.1914 22.8881 87.2195 22.9236 87.254 22.9523C87.2575 22.8706 87.2678 22.7893 87.285 22.7093C87.2991 22.6164 87.3031 22.5222 87.297 22.4283L87.309 22.4193ZM87.208 29.2143L87.145 29.7483C87.1452 29.8008 87.1661 29.8511 87.203 29.8883L87.286 29.6413C87.279 29.5614 87.2656 29.4822 87.246 29.4043C87.2255 29.3448 87.2088 29.284 87.196 29.2223L87.208 29.2143ZM87.412 21.8343C87.3923 21.8329 87.3726 21.8362 87.3543 21.8437C87.3361 21.8513 87.3199 21.8631 87.3069 21.878C87.294 21.893 87.2848 21.9107 87.2799 21.9299C87.2751 21.949 87.2748 21.969 87.279 21.9883C87.2857 22.0837 87.305 22.1303 87.337 22.1283C87.3957 22.0439 87.4187 21.9397 87.401 21.8383L87.412 21.8343ZM89.487 23.2773L89.56 22.8873C89.5184 22.9005 89.4826 22.9278 89.4589 22.9645C89.4352 23.0012 89.425 23.045 89.43 23.0883L89.487 23.2773ZM93.022 27.8033L92.844 28.0083C92.8656 27.9781 92.893 27.9526 92.9246 27.9332C92.9562 27.9138 92.9914 27.9009 93.028 27.8953C93.0295 27.8514 93.0434 27.8087 93.068 27.7723C93.0929 27.7357 93.1068 27.6926 93.108 27.6483C93.0734 27.6563 93.0447 27.708 93.022 27.8033ZM100.42 29.6433L100.44 29.9303C100.4 30.1658 100.336 30.3964 100.248 30.6183L100.299 30.6623C100.322 30.9823 100.285 31.1457 100.189 31.1523L99.902 31.1723C99.816 31.223 99.7167 31.2466 99.617 31.2403C99.4577 31.251 99.377 31.2407 99.375 31.2093L99.079 31.2293C99.0784 31.2359 99.0793 31.2426 99.0818 31.2488C99.0842 31.255 99.0881 31.2605 99.093 31.2649C99.098 31.2692 99.104 31.2724 99.1104 31.274C99.1168 31.2757 99.1236 31.2758 99.13 31.2743C99.1848 31.2962 99.2357 31.3266 99.281 31.3643L99.617 31.3403C99.3248 31.4583 98.9992 31.464 98.703 31.3563C98.5696 31.3467 98.4448 31.2866 98.354 31.1883C97.6587 30.8837 97.2554 30.623 97.144 30.4063C96.9815 30.2242 96.881 29.9952 96.857 29.7523C96.7661 28.718 96.7658 27.6777 96.856 26.6433C96.9447 25.8513 97.2164 24.348 97.671 22.1333C98.1444 19.7253 98.9257 16.4533 100.015 12.3173C101.104 8.18134 101.843 5.21701 102.232 3.42434L102.472 2.73434C102.511 2.67004 102.565 2.61631 102.629 2.57793C102.694 2.53955 102.767 2.51771 102.842 2.51434C103.079 2.54395 103.311 2.60901 103.529 2.70734C103.756 2.77791 103.973 2.87597 104.176 2.99934C104.668 3.15734 104.925 3.39601 104.948 3.71534L105.028 4.86534C105.054 5.64236 104.996 6.41994 104.854 7.18434C104.778 7.92434 104.62 8.87401 104.38 10.0333C104.14 11.1927 103.914 12.2033 103.702 13.0653C103.49 13.9307 103.201 15.0583 102.836 16.4483C102.471 17.8383 102.237 18.745 102.136 19.1683L102.15 19.3603C104.86 16.7653 107.399 13.9982 109.753 11.0763C109.795 10.9778 109.866 10.8943 109.957 10.8365C110.047 10.7787 110.153 10.7494 110.26 10.7523C110.382 10.7509 110.501 10.7819 110.607 10.8422C110.713 10.9025 110.8 10.9899 110.861 11.0953C111.016 11.2631 111.115 11.4749 111.144 11.7013C111.151 11.9592 111.086 12.2139 110.955 12.4363C110.502 13.3358 109.984 14.2008 109.404 15.0243C108.964 15.617 108.165 16.5797 107.007 17.9123C105.746 19.4197 104.363 20.821 102.872 22.1023C102.835 22.1774 102.824 22.2625 102.841 22.3443C102.869 22.4952 102.928 22.6386 103.015 22.7653L103.24 23.2313L104.011 24.6213C105.302 27.0047 106.41 28.164 107.336 28.0993C107.47 28.0872 107.598 28.0437 107.712 27.9723C108.359 27.768 109.032 27.6559 109.711 27.6393C109.934 27.624 110.052 27.696 110.063 27.8553C110.01 27.869 109.962 27.8974 109.924 27.9373C109.873 27.9856 109.808 28.0158 109.738 28.0233C109.338 28.0472 108.96 28.2099 108.667 28.4833C108.589 28.6396 108.463 28.7665 108.307 28.8453C108.24 28.85 108.208 28.8683 108.211 28.9003C108.149 28.9717 108.103 29.0083 108.074 29.0103C107.539 29.3559 106.92 29.5492 106.284 29.5693C105.91 29.5963 105.534 29.5574 105.173 29.4543C103.178 28.9203 101.755 27.1747 100.906 24.2173C100.625 26.0135 100.462 27.826 100.416 29.6433H100.42ZM99.767 26.5113L99.744 26.1763C99.618 26.217 99.5674 26.413 99.592 26.7643L99.469 27.0623L99.482 27.2543L99.448 27.4483L99.492 27.3983C99.5432 27.3691 99.5895 27.332 99.629 27.2883L99.626 27.2393C99.6394 27.2259 99.6499 27.2097 99.6568 27.192C99.6637 27.1743 99.6668 27.1553 99.666 27.1363L99.612 27.0403L99.599 26.8603C99.7244 26.8517 99.779 26.7357 99.763 26.5123L99.767 26.5113ZM99.002 27.9613C99.0047 27.9933 98.9594 28.03 98.866 28.0713L98.93 28.3073L99.081 28.3973C99.0684 28.3302 99.0808 28.2608 99.116 28.2023L99.208 28.0953C99.1414 28.1 99.1047 28.0543 99.098 27.9583L99.078 27.6713C99.046 27.6733 99.0337 27.7223 99.041 27.8183L99.002 27.9613ZM100.195 20.9453C100.202 20.9974 100.189 21.0502 100.157 21.0923L100.174 21.3323C100.241 21.3277 100.278 21.285 100.286 21.2043C100.294 21.1237 100.315 21.082 100.349 21.0793L100.281 20.7953L100.195 20.9453ZM99.937 24.8153C99.9361 24.7505 99.9394 24.6857 99.947 24.6213C99.9549 24.5573 99.9586 24.4928 99.958 24.4283L99.872 24.6273C99.8404 24.7371 99.8319 24.8522 99.847 24.9653C99.8747 24.9518 99.8977 24.9303 99.9131 24.9036C99.9284 24.8768 99.9354 24.8461 99.933 24.8153H99.937ZM100.622 21.5413L100.685 21.0073C100.598 21.2254 100.549 21.4567 100.54 21.6913C100.594 21.6233 100.62 21.5733 100.618 21.5413H100.622ZM109.093 13.9673C109.125 13.8572 109.133 13.7418 109.117 13.6283C109.067 13.6378 109.019 13.6575 108.977 13.6863C109.033 13.7713 109.072 13.8669 109.089 13.9673H109.093ZM98.256 25.6073L98.177 25.1793C98.1747 25.3434 98.1525 25.5066 98.111 25.6653L98.256 25.6073ZM98.9 21.7583L98.722 21.9633C98.7607 22.0567 98.7974 22.1023 98.832 22.1003C98.8412 21.9841 98.8641 21.8693 98.9 21.7583ZM98.68 28.2243C98.744 28.1883 98.8254 27.9743 98.924 27.5823C98.8941 27.6155 98.8713 27.6544 98.857 27.6967C98.8427 27.739 98.8373 27.7838 98.841 27.8283L98.68 28.2243ZM100.241 29.8963C100.273 29.8552 100.297 29.808 100.311 29.7575C100.325 29.707 100.328 29.6542 100.321 29.6023L100.228 29.7083L100.184 29.7603C100.22 29.7968 100.24 29.8454 100.241 29.8963ZM131.689 15.6563L131.766 16.7533L131.985 16.4493L132.015 16.8803C132.069 16.8006 132.151 16.7436 132.245 16.7203L131.988 17.1273L132.42 17.0973L132.049 17.9893L132.392 17.3873C132.385 17.5924 132.333 17.7935 132.24 17.9763C131.785 18.8103 131.125 19.9157 130.259 21.2923C130.261 21.3243 130.23 21.36 130.166 21.3993L130.073 21.5053C130.075 21.5373 130.053 21.5723 130.008 21.6103C129.963 21.6483 129.941 21.6833 129.943 21.7153C129.952 21.8433 129.924 21.9097 129.857 21.9143L129.761 21.9693C129.67 22.0427 129.625 22.0937 129.627 22.1223C129.638 22.2823 129.596 22.3657 129.5 22.3723C129.468 22.3743 129.449 22.3277 129.442 22.2323L129 22.7923L129.147 22.8303C129.218 22.7135 129.308 22.6093 129.414 22.5223C129.399 22.673 129.333 22.8139 129.226 22.9213C129.119 23.0282 129.052 23.1688 129.036 23.3193C129.039 23.3513 128.996 23.4267 128.908 23.5453C128.82 23.664 128.777 23.739 128.78 23.7703C128.527 23.8203 128.407 23.9413 128.42 24.1333C128.205 24.2767 128.099 24.3643 128.101 24.3963C128.199 24.3876 128.293 24.3534 128.374 24.2971C128.454 24.2408 128.519 24.1643 128.561 24.0753L128.523 24.2223C128.463 24.3223 128.341 24.5313 128.157 24.8493C128.012 25.1094 127.844 25.3561 127.655 25.5863C127.467 25.9387 127.231 26.2632 126.953 26.5503L126.38 27.3133L126.336 27.3633C126.121 27.6984 125.868 28.0071 125.582 28.2833C125.345 28.5567 124.993 28.9183 124.527 29.3683C124.061 29.8183 123.754 30.1287 123.605 30.2993C123.309 30.529 122.947 30.656 122.572 30.6613L122.236 30.6843C121.557 30.6439 120.904 30.4051 120.359 29.9973C120.138 29.9212 119.941 29.7896 119.785 29.6152C119.63 29.4409 119.521 29.2295 119.471 29.0013L119.361 28.8643C119.306 28.646 119.274 28.4224 119.266 28.1973L119.17 26.8313C119.34 25.0682 119.71 23.3302 120.275 21.6513C120.804 20.0554 121.196 18.4176 121.448 16.7553C121.466 16.4828 121.462 16.2093 121.438 15.9373C120.937 16.2784 120.495 16.6997 120.13 17.1843C119.51 17.9655 118.94 18.7855 118.425 19.6393C117.79 20.6627 117.273 21.5253 116.873 22.2273C116.473 22.9293 115.939 23.8893 115.27 25.1073C114.601 26.326 114.224 27.0027 114.137 27.1373C114.119 27.2111 114.086 27.2805 114.041 27.3415C113.996 27.4025 113.938 27.4537 113.873 27.4923C113.634 27.6877 113.335 27.7937 113.027 27.7923C112.556 27.696 112.104 27.5245 111.687 27.2843C111.272 27.0656 110.84 26.8784 110.397 26.7243C109.973 26.6263 109.739 26.258 109.694 25.6193C109.714 24.9495 109.796 24.283 109.939 23.6283C110.012 23.3017 110.162 22.6973 110.389 21.8153C110.616 20.9333 110.865 20.0173 111.136 19.0673C111.403 18.118 111.562 17.529 111.613 17.3003C113.767 9.57567 115.096 4.26734 115.599 1.37534C115.592 1.28001 115.717 1.22334 115.972 1.20534L116.116 1.19534L116.219 1.23534C116.882 1.42847 117.486 1.78347 117.977 2.26834C118.235 2.73009 118.356 3.25622 118.324 3.78434C118.233 6.12549 117.887 8.4498 117.294 10.7163C116.634 13.4423 115.545 17.2493 114.027 22.1373C114.755 20.5948 115.625 19.1237 116.627 17.7433C117.437 16.5187 118.422 15.4196 119.551 14.4813C119.613 14.41 119.659 14.3733 119.688 14.3713L119.733 14.3203L119.833 14.3133C120.184 14.0845 120.591 13.9558 121.01 13.9413C121.363 13.9652 121.714 14.0215 122.057 14.1093C122.409 14.1552 122.75 14.2614 123.065 14.4233C123.183 14.4921 123.308 14.5478 123.438 14.5893C123.61 14.6472 123.77 14.7337 123.913 14.8453C123.942 14.9166 123.988 14.9795 124.047 15.0283C124.106 15.0773 124.152 15.1402 124.18 15.2113C124.269 15.2954 124.341 15.3967 124.39 15.5091C124.439 15.6215 124.465 15.7427 124.466 15.8653C124.466 15.9406 124.488 16.0142 124.529 16.0773C124.57 16.1408 124.592 16.2148 124.592 16.2903C124.595 16.3472 124.607 16.4033 124.628 16.4563C124.645 16.4938 124.655 16.5336 124.66 16.5743C124.748 17.7404 124.669 18.913 124.423 20.0563C124.412 20.4814 124.311 20.8992 124.124 21.2813L122.828 26.1383C122.609 26.9706 122.459 27.8195 122.38 28.6763L122.394 28.8683C122.401 28.9643 122.42 29.011 122.452 29.0083C123.239 28.3338 123.914 27.539 124.452 26.6533C125.535 25.1653 126.658 23.5303 127.819 21.7483C128.232 21.1443 129.52 19.1137 131.685 15.6563H131.689ZM124.527 18.5653L124.542 18.0823C124.573 17.9726 124.582 17.8575 124.566 17.7443L124.453 17.5593L124.42 18.5243C124.382 18.6161 124.372 18.717 124.392 18.8143L124.433 18.7123C124.498 18.6457 124.53 18.5967 124.527 18.5653ZM125.567 27.2053C125.593 27.2072 125.62 27.2029 125.644 27.1928C125.668 27.1827 125.69 27.1671 125.707 27.1472C125.724 27.1273 125.737 27.1037 125.743 27.0782C125.75 27.0527 125.751 27.0261 125.745 27.0003L125.718 26.6173C125.659 26.7283 125.585 26.8306 125.498 26.9213C125.492 27.0238 125.465 27.124 125.418 27.2153L125.285 27.3693C125.341 27.3625 125.394 27.3444 125.443 27.3162C125.491 27.288 125.534 27.2503 125.567 27.2053ZM118.511 16.5803L118.117 17.1373C118.244 17.128 118.497 16.8373 118.874 16.2653C118.732 16.344 118.609 16.4513 118.511 16.5803ZM122.495 18.4673C122.526 18.4647 122.576 18.4947 122.645 18.5573L122.607 18.7033C122.703 18.6967 122.744 18.5977 122.731 18.4063L122.769 18.2593L122.399 18.4773C122.408 18.5596 122.397 18.6428 122.368 18.7203L122.495 18.4673ZM122.062 25.3333C121.883 25.538 121.826 25.638 121.89 25.6333C121.977 25.6175 122.058 25.5773 122.123 25.5173C122.15 25.3678 122.188 25.2205 122.236 25.0763C122.111 25.0877 122.055 25.1733 122.066 25.3333H122.062ZM114.092 18.7713L114.062 18.3403C114.008 18.4501 113.967 18.5659 113.941 18.6853L113.958 18.9253L114.092 18.7713ZM122.732 22.5463L122.672 22.3583C122.63 22.3713 122.594 22.3985 122.57 22.4352C122.546 22.4719 122.536 22.5158 122.541 22.5593L122.417 22.8573C122.508 22.784 122.553 22.7327 122.551 22.7033L122.732 22.5463ZM122.27 20.0713L122.25 19.7843L122.12 19.9853L122.243 20.3143L122.236 20.2143C122.267 20.1733 122.28 20.1221 122.274 20.0713H122.27ZM124.836 27.8343L124.744 27.9413C124.684 27.976 124.63 28.0203 124.584 28.0723C124.549 28.1051 124.526 28.1494 124.521 28.1973C124.59 28.1737 124.653 28.1351 124.706 28.0843L124.884 27.8793C124.881 27.8473 124.911 27.7973 124.974 27.7293L124.836 27.8343ZM122.456 24.1023C122.265 24.1157 122.171 24.1557 122.176 24.2223C122.226 24.2129 122.274 24.1932 122.316 24.1643L122.233 24.4103C122.386 24.237 122.462 24.134 122.461 24.1013L122.456 24.1023ZM124.969 28.3543C124.931 28.3527 124.893 28.3626 124.86 28.3827C124.827 28.4028 124.801 28.4323 124.785 28.4673L124.658 28.7173C124.726 28.675 124.787 28.622 124.839 28.5603C124.931 28.455 124.976 28.3863 124.973 28.3543H124.969ZM122.221 23.4923C122.266 23.458 122.301 23.4125 122.323 23.3604C122.344 23.3083 122.352 23.2514 122.345 23.1953L122.218 23.4453C122.219 23.4517 122.219 23.4584 122.217 23.4647C122.216 23.471 122.212 23.4768 122.208 23.4816C122.204 23.4865 122.198 23.4902 122.192 23.4926C122.186 23.495 122.18 23.4959 122.173 23.4953L122.133 23.5993C122.14 23.6953 122.159 23.742 122.19 23.7393C122.229 23.6633 122.241 23.5763 122.225 23.4923H122.221ZM122.914 19.6413L122.828 19.8393L122.954 19.5893L123.044 19.4393L122.986 19.2993C122.938 19.4064 122.915 19.523 122.918 19.6403L122.914 19.6413ZM114.621 13.9643C114.674 13.9641 114.724 13.9433 114.761 13.9063L114.809 13.9033L114.902 13.7963L114.942 13.6933C114.879 13.7033 114.774 13.7933 114.625 13.9633L114.621 13.9643ZM122.677 20.3793C122.72 20.3331 122.752 20.2786 122.773 20.2193C122.793 20.1599 122.802 20.097 122.797 20.0343C122.732 19.9743 122.693 20.0893 122.681 20.3793H122.677ZM122.923 23.2023L123.08 23.3843C123.071 23.302 123.082 23.2188 123.111 23.1413C123.044 23.1389 122.979 23.1606 122.927 23.2023H122.923ZM123.203 21.6903L123.189 21.4993C123.169 21.4978 123.149 21.5009 123.131 21.5084C123.113 21.5159 123.096 21.5276 123.083 21.5426C123.07 21.5576 123.061 21.5754 123.056 21.5946C123.051 21.6138 123.051 21.634 123.055 21.6533C123.076 21.6693 123.101 21.6808 123.127 21.6871C123.153 21.6935 123.18 21.6946 123.206 21.6903H123.203ZM140.793 25.4153C141.463 24.8664 142.036 24.2077 142.486 23.4673C143.245 22.3873 143.955 21.2947 144.616 20.1893C145.277 19.084 145.993 17.8463 146.762 16.4763C147.535 15.1063 148.007 14.2867 148.178 14.0173L148.094 15.5643L148.44 15.0103L148.416 15.3493L148.289 15.5993L148.521 15.4823L148.648 15.8583L148.627 16.2453L147.437 18.4953C146.186 21.1312 144.613 23.602 142.754 25.8513C142.333 26.2804 141.834 26.6259 141.284 26.8693C141.163 26.9189 141.034 26.9443 140.904 26.9443C140.873 26.9463 140.729 26.9483 140.472 26.9503C140.215 26.9523 140.055 26.9557 139.992 26.9603C139.899 26.968 139.805 26.9493 139.722 26.9063C139.639 26.8643 139.54 26.8153 139.424 26.7593C139.321 26.7082 139.213 26.6674 139.102 26.6373C138.559 26.4698 138.096 26.1099 137.8 25.6253C137.464 25.1206 137.266 24.5371 137.224 23.9323L137.194 23.5023C137.119 22.0963 137.197 20.6863 137.428 19.2973C137.341 19.4313 137.1 19.8827 136.705 20.6513C136.31 21.42 135.99 22.0107 135.745 22.4233C135.502 22.842 135.177 23.3543 134.77 23.9603C134.435 24.4826 134.029 24.9563 133.565 25.3683C133.239 25.6658 132.837 25.8676 132.403 25.9513C132.3 25.9316 132.201 25.8979 132.107 25.8513C131.942 25.7833 131.759 25.7 131.56 25.6013C131.438 25.5469 131.321 25.4827 131.21 25.4093C131.06 25.3325 130.903 25.2712 130.74 25.2263C130.594 25.1882 130.453 25.1335 130.319 25.0633C130.199 24.965 130.094 24.8506 130.006 24.7233C129.841 24.4962 129.709 24.2463 129.616 23.9813C129.583 23.9011 129.544 23.8232 129.5 23.7483L129.473 23.3653C129.423 23.2942 129.383 23.2156 129.357 23.1323C129.359 23.0175 129.375 22.9033 129.405 22.7923C129.438 22.6657 129.453 22.5351 129.45 22.4043L129.42 21.9723C129.404 21.749 129.442 21.6023 129.533 21.5323L129.49 20.9123C129.73 19.3469 130.261 17.8402 131.056 16.4703C131.685 15.2956 132.45 14.1984 133.334 13.2013C134.109 12.2823 135.08 11.5492 136.176 11.0563C136.43 10.9416 136.702 10.8738 136.98 10.8563C137.35 10.8909 137.713 10.9785 138.058 11.1163C138.423 11.2521 138.799 11.3548 139.182 11.4233C139.271 11.2719 139.349 11.1137 139.414 10.9503C139.523 10.6909 139.676 10.4521 139.866 10.2443C140.02 10.0679 140.237 9.95791 140.47 9.93734L140.867 10.1013L141.058 10.0883C141.449 10.0743 141.835 10.1819 142.163 10.3963C142.548 10.6257 142.748 10.8363 142.761 11.0283C142.773 11.7248 142.658 12.4177 142.423 13.0733C141.776 14.8884 141.359 16.7775 141.181 18.6963C140.801 20.7902 140.611 22.9142 140.615 25.0423L140.793 25.4153ZM138.29 13.7483C138.202 13.7569 138.115 13.7712 138.029 13.7913C137.958 13.8081 137.887 13.8211 137.815 13.8303C137.434 13.889 136.926 14.3177 136.292 15.1163C135.615 15.9809 135.011 16.9008 134.487 17.8663C133.638 19.3922 132.992 21.0223 132.565 22.7153C132.507 22.92 132.488 23.1337 132.509 23.3453L132.395 23.7853C132.483 23.7509 132.562 23.6961 132.625 23.6253C132.826 23.2907 133.468 22.1543 134.552 20.2163C136.605 16.513 137.853 14.357 138.294 13.7483H138.29ZM140.46 21.3473L140.48 21.6343C140.425 22.0019 140.395 22.3727 140.39 22.7443C140.375 23.2263 140.371 23.5153 140.378 23.6113C140.379 23.66 140.374 23.7087 140.364 23.7563C140.354 23.8043 140.349 23.8533 140.35 23.9023L140.367 24.1423C140.479 22.1054 140.723 20.0778 141.097 18.0723C141.26 16.9063 141.484 15.7496 141.769 14.6073C141.303 15.8508 141.005 17.151 140.884 18.4733C140.77 19.148 140.692 19.8283 140.65 20.5113C140.648 20.6469 140.616 20.7803 140.557 20.9023C140.492 21.0411 140.46 21.1931 140.464 21.3463L140.46 21.3473ZM140.377 16.7313C140.376 16.6589 140.379 16.5865 140.386 16.5143C140.393 16.4419 140.396 16.3691 140.395 16.2963L140.365 15.8663L140.189 16.7923L140.233 16.7413L140.377 16.7313ZM139.62 20.3463L139.653 20.8263C139.781 20.817 139.838 20.7167 139.825 20.5253C139.823 20.4607 139.756 20.401 139.624 20.3463H139.62ZM130.5 18.6793C130.354 18.8942 130.241 19.1294 130.164 19.3773C130.324 19.3307 130.437 19.0967 130.504 18.6753L130.5 18.6793ZM140.3 17.7033C140.273 17.772 140.245 17.8463 140.216 17.9263C140.184 18.0229 140.158 18.1211 140.136 18.2203C140.112 18.3343 140.086 18.4403 140.059 18.5383L140.192 18.3853C140.254 18.2654 140.28 18.1297 140.265 17.9953L140.31 17.9433C140.323 17.9299 140.334 17.9137 140.341 17.896C140.348 17.8783 140.351 17.8593 140.35 17.8403C140.345 17.7908 140.329 17.7428 140.305 17.6993L140.3 17.7033ZM140.228 21.4633C140.247 21.2454 140.297 21.0313 140.376 20.8273L140.256 20.5473L140.269 20.7383C140.276 20.7904 140.273 20.8433 140.259 20.894C140.245 20.9447 140.221 20.9921 140.189 21.0333C140.153 21.1085 140.142 21.1936 140.159 21.2753C140.16 21.3434 140.185 21.4089 140.231 21.4593L140.228 21.4633ZM139.946 22.2533C140.049 22.3427 140.116 22.386 140.148 22.3833C140.131 22.3012 140.141 22.2158 140.178 22.1403L140.101 21.7133C140.091 21.9009 140.039 22.0839 139.95 22.2493L139.946 22.2533ZM130.35 18.5933C130.382 18.5913 130.432 18.6213 130.5 18.6833L130.522 18.2973C130.49 18.2993 130.469 18.341 130.459 18.4223C130.455 18.4563 130.444 18.4891 130.426 18.518C130.408 18.547 130.383 18.5714 130.354 18.5893L130.35 18.5933ZM140.544 20.4263C140.525 20.4284 140.507 20.4343 140.49 20.4438C140.474 20.4533 140.459 20.466 140.448 20.4813L140.4 20.4843C140.397 20.5506 140.385 20.6161 140.365 20.6793C140.397 20.6773 140.442 20.626 140.499 20.5253L140.544 20.4263ZM165.42 13.3383C165.44 13.6127 165.426 13.8884 165.378 14.1593L165.418 14.0563L165.64 14.4743L166.035 13.9163L165.438 15.0213C165.662 14.8291 165.873 14.6213 166.068 14.3993L166.098 14.8313L164.922 17.2713L164.315 18.2293L164.095 18.5333L164.182 18.3353C164.205 18.2564 164.215 18.1745 164.213 18.0923C164.211 18.0603 164.189 18.086 164.147 18.1693C164.102 18.2563 164.052 18.3401 163.996 18.4203C163.951 18.4697 163.921 18.5301 163.908 18.5953C163.908 18.6018 163.909 18.6082 163.911 18.6141C163.914 18.6201 163.917 18.6254 163.922 18.6297C163.927 18.6339 163.933 18.637 163.939 18.6387C163.945 18.6404 163.952 18.6406 163.958 18.6393L164.01 18.6843C163.955 18.8941 163.843 19.0848 163.688 19.2363C163.633 19.2972 163.56 19.3377 163.479 19.3513L163.435 19.4023C163.442 19.4983 163.429 19.5473 163.397 19.5493L163.14 20.0003C163.139 20.0069 163.14 20.0136 163.143 20.0198C163.145 20.026 163.149 20.0315 163.154 20.0359C163.159 20.0402 163.165 20.0434 163.171 20.045C163.178 20.0467 163.185 20.0468 163.191 20.0453L163.284 19.9383C163.352 19.8618 163.428 19.7921 163.51 19.7303L163.6 19.5803C163.314 20.081 163.127 20.3987 163.04 20.5333C162.897 20.768 162.521 21.356 161.913 22.2973C161.305 23.2387 160.899 23.8607 160.696 24.1633C159.563 25.848 158.523 26.8037 157.576 27.0303C157.487 27.0346 157.398 27.033 157.31 27.0253C157.238 27.0182 157.165 27.0148 157.093 27.0153C156.664 27.0085 156.238 26.9411 155.827 26.8153C155.39 26.6095 155.013 26.2948 154.733 25.9015C154.452 25.5083 154.277 25.0496 154.225 24.5693L154.168 23.7553C154.153 23.6418 154.161 23.5264 154.193 23.4163L154.173 23.1293C154.161 22.8546 154.175 22.5793 154.215 22.3073C154.308 21.5359 154.447 20.7709 154.632 20.0163C155.575 16.0663 156.063 13.8817 156.098 13.4623L156.092 12.6923C156.085 12.5963 156.066 12.5497 156.034 12.5523C155.105 13.304 154.336 14.2335 153.771 15.2863C152.598 17.1266 151.575 19.0578 150.71 21.0613C150.497 21.5131 150.329 21.9842 150.207 22.4683C150.073 22.9865 149.891 23.491 149.663 23.9753L149.549 24.4153C149.49 24.6253 149.364 24.8108 149.192 24.9443C149.019 25.0779 148.808 25.1525 148.59 25.1573C148.549 25.1582 148.508 25.1528 148.469 25.1413C148.429 25.1301 148.388 25.125 148.347 25.1263C148.076 25.075 147.821 24.961 147.602 24.7933C147.299 24.59 147.021 24.409 146.769 24.2503C146.638 24.154 146.495 24.075 146.344 24.0153C146.152 24.0287 146.036 23.9727 145.995 23.8473C145.993 23.8153 145.95 23.778 145.867 23.7353C145.784 23.6927 145.741 23.6557 145.739 23.6243C145.754 23.5083 145.78 23.3939 145.815 23.2823C146.955 17.6177 147.733 13.375 148.148 10.5543C148.223 10.2597 148.357 10.1057 148.548 10.0923C148.833 10.1286 149.112 10.1981 149.381 10.2993C149.668 10.3793 149.949 10.4802 150.221 10.6013C150.761 10.9807 151.055 11.2807 151.102 11.5013C151.107 11.568 151.123 11.6873 151.152 11.8593C151.179 12.0258 151.214 12.1907 151.258 12.3533L151.275 12.5933C151.279 13.5914 151.165 14.5863 150.934 15.5573C151.449 14.5118 152.073 13.5239 152.797 12.6103C153.336 11.8608 154.009 11.2179 154.782 10.7143C155.091 10.4604 155.458 10.286 155.85 10.2063C155.901 10.2087 155.951 10.2216 155.997 10.2443C156.066 10.271 156.236 10.323 156.509 10.4003C156.718 10.4546 156.924 10.5207 157.125 10.5983C157.257 10.6557 157.447 10.7307 157.695 10.8233C157.889 10.8909 158.073 10.983 158.243 11.0973C158.362 11.1853 158.505 11.2877 158.673 11.4043C158.831 11.5096 158.964 11.6481 159.063 11.8103C159.157 11.9708 159.226 12.1444 159.268 12.3253C159.417 12.7868 159.5 13.2674 159.512 13.7523C159.459 15.4514 159.189 17.1366 158.709 18.7673C158.633 19.0613 158.508 19.5673 158.334 20.2853C158.16 21.0033 158.01 21.6077 157.884 22.0983C157.757 22.589 157.65 23.118 157.561 23.6853C157.482 24.1582 157.435 24.636 157.421 25.1153C157.434 25.3073 157.457 25.402 157.489 25.3993C157.649 25.3887 158.008 25.0107 158.565 24.2653C159.122 23.52 159.762 22.5683 160.483 21.4103C161.204 20.253 161.894 19.1377 162.555 18.0643C163.216 16.991 163.841 15.9603 164.432 14.9723C165.031 13.983 165.361 13.4383 165.42 13.3383ZM156.764 24.4393L156.924 24.6693C156.916 24.7526 156.897 24.8345 156.869 24.9133C156.833 25.023 156.817 25.1381 156.821 25.2533L156.958 25.1433L156.995 24.9973C156.978 24.8208 156.982 24.643 157.006 24.4673L156.996 24.3233L157.041 24.2713C157.073 24.2693 157.083 24.1887 157.071 24.0293C157.104 23.8592 157.157 23.6937 157.23 23.5363L157.213 23.2963C157.117 23.303 157.058 23.3717 157.035 23.5023C157.046 23.6623 157.036 23.743 157.004 23.7443C156.972 23.7457 156.926 23.7823 156.867 23.8543C156.874 23.737 156.9 23.6215 156.943 23.5123L156.974 23.2693L157.015 23.1663L157.005 23.0223C157.072 23.0177 157.101 22.9517 157.092 22.8243C157.159 22.8197 157.186 22.7373 157.175 22.5773L157.215 22.4743L157.26 22.4233C157.258 22.3913 157.303 22.34 157.394 22.2693C157.389 22.2027 157.339 22.1727 157.243 22.1793L157.123 21.8993L157.14 22.1393L156.948 22.1523C156.948 22.2048 156.969 22.2551 157.006 22.2923C156.98 22.2905 156.953 22.2948 156.929 22.3049C156.905 22.315 156.883 22.3306 156.866 22.3505C156.849 22.3704 156.836 22.394 156.83 22.4194C156.823 22.4449 156.823 22.4716 156.828 22.4973L157.016 22.4363C157.019 22.4683 156.988 22.5107 156.925 22.5633C156.897 22.5829 156.875 22.6091 156.859 22.6394C156.844 22.6697 156.836 22.7034 156.837 22.7373C156.844 22.7753 156.84 22.8146 156.825 22.8501C156.809 22.8855 156.784 22.9156 156.751 22.9363L156.811 23.1243C156.814 23.1563 156.783 23.192 156.719 23.2313L156.675 23.2823C156.677 23.3014 156.683 23.3198 156.692 23.3365C156.701 23.3532 156.714 23.3678 156.729 23.3793L156.733 23.4263C156.735 23.4583 156.733 23.539 156.726 23.6683C156.719 23.7645 156.718 23.861 156.722 23.9573C156.825 24.046 156.877 24.1063 156.879 24.1383L156.786 24.2453C156.769 24.309 156.76 24.3745 156.76 24.4403L156.764 24.4393ZM162.756 20.6493L162.846 20.4993C162.896 20.4095 162.955 20.3248 163.021 20.2463C162.944 20.3309 162.861 20.4091 162.772 20.4803C162.665 20.5677 162.589 20.629 162.544 20.6643C162.491 20.7109 162.454 20.7722 162.436 20.8403C162.409 20.9266 162.399 21.0173 162.407 21.1073L162.752 20.6493H162.756ZM162.269 21.2613C162.223 21.2735 162.182 21.3019 162.155 21.3413C162.11 21.3938 162.073 21.4532 162.047 21.5173C162.025 21.5721 161.995 21.6231 161.957 21.6683L162.001 21.6173L161.994 21.5173L161.95 21.5683L161.816 21.7223L161.956 21.6643L161.83 21.9143C161.958 21.9077 162.103 21.69 162.265 21.2613H162.269ZM157.336 20.9813L157.185 20.8913L157.39 21.0703C157.422 21.0677 157.468 21.031 157.527 20.9603L157.547 20.5733C157.533 20.5717 157.519 20.5735 157.506 20.5785C157.493 20.5836 157.482 20.5918 157.473 20.6023C157.463 20.6129 157.457 20.6255 157.454 20.6391C157.451 20.6528 157.451 20.6669 157.455 20.6803C157.415 20.7198 157.384 20.7668 157.363 20.8188C157.341 20.8707 157.331 20.9263 157.332 20.9823L157.336 20.9813ZM160.956 23.1823C160.926 23.2156 160.903 23.2547 160.889 23.2972C160.874 23.3397 160.869 23.3847 160.873 23.4293L160.517 23.8393C160.549 23.8373 160.617 23.7763 160.72 23.6563C160.823 23.5363 160.891 23.4753 160.924 23.4733C160.919 23.4067 161.006 23.2723 161.184 23.0703C161.165 23.0724 161.147 23.0783 161.13 23.0878C161.114 23.0973 161.099 23.11 161.088 23.1253C161.053 23.16 161.006 23.1804 160.956 23.1823ZM158.227 17.1643C158.187 17.3695 158.12 17.5683 158.027 17.7553L158.244 17.4033C158.311 17.3987 158.338 17.3167 158.327 17.1573L158.313 16.9653L158.223 17.1153L158.227 17.1643ZM164.769 17.0903L164.594 17.3433L164.827 17.2263L164.94 16.7863C164.942 16.8177 164.912 16.8677 164.85 16.9363C164.788 17.005 164.76 17.0563 164.765 17.0903H164.769ZM157.507 17.9363C157.505 17.9874 157.492 18.0375 157.469 18.0833C157.422 18.175 157.395 18.2755 157.389 18.3783C157.433 18.0945 157.567 17.8321 157.77 17.6293C157.65 17.6989 157.557 17.8072 157.507 17.9363ZM146.973 20.7463C147.005 20.6359 147.013 20.5201 146.997 20.4063C146.947 20.4161 146.899 20.4362 146.857 20.4653C146.913 20.55 146.951 20.6453 146.969 20.7453L146.973 20.7463ZM147.776 19.1493C147.774 19.1302 147.768 19.1117 147.759 19.095C147.749 19.0783 147.736 19.0638 147.721 19.0523C147.706 19.041 147.693 19.0266 147.683 19.0101C147.674 18.9936 147.668 18.9753 147.666 18.9563L147.542 19.2533C147.584 19.2245 147.632 19.2048 147.682 19.1953L147.776 19.1493ZM157.2 23.1093C157.213 23.0959 157.224 23.0797 157.231 23.062C157.238 23.0443 157.241 23.0253 157.24 23.0063L157.272 22.7633C157.212 22.8682 157.185 22.9889 157.196 23.1093H157.2ZM176.237 11.7613C174.727 12.156 173.764 12.384 173.349 12.4453C173.435 12.8214 173.496 13.203 173.529 13.5873C173.565 15.723 173.05 17.832 172.033 19.7103C171.256 21.6614 169.819 23.2781 167.973 24.2793C167.768 24.387 167.544 24.4517 167.313 24.4693L166.785 24.5073C166.17 24.5193 165.559 24.4151 164.983 24.2003C164.082 24.167 163.571 23.288 163.45 21.5633C163.377 20.3499 163.454 19.1322 163.677 17.9373C163.676 17.8961 163.681 17.8549 163.693 17.8153C163.704 17.776 163.709 17.7352 163.708 17.6943L163.784 17.3523L163.904 17.0063C164.429 14.7951 165.341 12.694 166.598 10.8003C167.02 10.075 167.589 9.44497 168.266 8.94999C168.944 8.45501 169.717 8.1058 170.537 7.92434L171.064 7.88734C171.575 7.85134 171.901 7.92467 172.042 8.10734L172.432 8.18034C172.442 8.26715 172.428 8.35502 172.391 8.43414C172.354 8.51325 172.295 8.5805 172.222 8.62834C171.777 8.89512 171.379 9.23215 171.042 9.62634C171.654 9.84166 172.196 10.2195 172.61 10.7193C173.885 10.598 176.263 10.1747 179.742 9.44934C179.774 9.44667 179.727 9.57001 179.6 9.81934C179.467 10.0805 179.317 10.3323 179.15 10.5733C178.976 10.8267 178.874 10.9703 178.844 11.0043C178.098 11.3085 177.324 11.5402 176.534 11.6963C176.486 11.7024 176.438 11.7138 176.392 11.7303C176.34 11.7469 176.287 11.7569 176.233 11.7603L176.237 11.7613ZM170.834 12.9583L170.817 12.7183L170.434 12.7453C170.062 12.7838 169.688 12.7096 169.359 12.5323L168.759 14.2593C167.789 16.848 167.136 19.5447 166.815 22.2903C166.812 22.2583 166.891 22.2367 167.051 22.2253C167.057 22.2258 167.064 22.2247 167.07 22.2223C167.076 22.2198 167.081 22.216 167.085 22.2112C167.09 22.2063 167.093 22.2006 167.094 22.1944C167.096 22.1882 167.096 22.1817 167.095 22.1753L167.192 22.1193C168.281 20.8943 169.136 19.4803 169.715 17.9473C170.415 16.3752 170.794 14.679 170.83 12.9583H170.834ZM172.574 16.4953C172.656 16.4249 172.71 16.3267 172.724 16.2193C172.751 16.132 172.768 16.0422 172.776 15.9513C172.763 15.9549 172.748 15.9551 172.735 15.9519C172.721 15.9487 172.709 15.9422 172.698 15.9331C172.688 15.9239 172.68 15.9122 172.675 15.8992C172.67 15.8862 172.668 15.8722 172.67 15.8583C172.687 15.7029 172.763 15.5598 172.882 15.4583C172.785 15.4989 172.703 15.5695 172.649 15.6598C172.595 15.7502 172.571 15.8555 172.581 15.9603L172.543 16.1083C172.518 16.2029 172.509 16.3008 172.515 16.3983C172.33 16.5077 172.25 16.738 172.275 17.0893L172.507 16.9733L172.5 16.8733C172.523 16.8275 172.536 16.7774 172.538 16.7263C172.537 16.6773 172.542 16.6283 172.552 16.5803L172.574 16.4953ZM172.138 17.8293C172.106 17.8313 172.061 17.8827 172.004 17.9833L171.884 18.3283C171.887 18.3603 171.857 18.4103 171.794 18.4783C171.763 18.5208 171.749 18.5741 171.757 18.6263C171.762 18.7062 171.744 18.7858 171.707 18.8563C171.669 18.9269 171.613 18.9858 171.544 19.0263L171.777 18.9093C171.809 18.795 171.858 18.6862 171.922 18.5863C172.013 18.4274 172.074 18.2532 172.102 18.0723C172.085 17.9888 172.096 17.9017 172.134 17.8253L172.138 17.8293ZM171.868 17.4153L171.788 17.7093C171.817 17.7605 171.854 17.8068 171.898 17.8463C171.77 18.0462 171.672 18.2639 171.607 18.4923C171.627 18.4937 171.646 18.4905 171.665 18.4829C171.683 18.4754 171.699 18.4636 171.712 18.4487C171.725 18.4337 171.734 18.416 171.739 18.3968C171.744 18.3777 171.744 18.3576 171.74 18.3383C171.782 18.2839 171.819 18.2248 171.848 18.1623C171.877 18.0998 171.914 18.0408 171.956 17.9863L171.868 17.4153ZM173.2 13.7593L173.114 13.9573L173.151 14.4843C173.224 14.3316 173.261 14.1645 173.261 13.9953C173.256 13.9546 173.246 13.9148 173.229 13.8773C173.212 13.8387 173.201 13.7975 173.196 13.7553L173.2 13.7593ZM172.884 14.7443L172.727 14.5623C172.731 14.659 172.73 14.7558 172.723 14.8523C172.716 14.9642 172.716 15.0764 172.723 15.1883C172.794 15.0462 172.847 14.8957 172.88 14.7403L172.884 14.7443ZM171.188 19.3883C171.257 19.2884 171.285 19.1653 171.265 19.0453C171.142 19.1213 171.081 19.174 171.083 19.2033L171.134 19.2473C171.167 19.2851 171.185 19.334 171.184 19.3843L171.188 19.3883ZM172.941 15.5543L172.801 15.6123L172.804 15.6603C172.819 15.6717 172.832 15.6861 172.842 15.7026C172.851 15.7191 172.857 15.7374 172.859 15.7563L172.941 15.5543ZM184.911 14.6143L185.101 14.6013C184.241 17.527 183.103 20.3633 181.701 23.0713C181.645 23.1439 181.594 23.2201 181.548 23.2993C181.49 23.3971 181.424 23.4901 181.351 23.5773C181.341 23.6735 181.296 23.7625 181.224 23.8273C181.125 23.9048 181.042 24.0005 180.979 24.1093C180.9 24.2347 180.802 24.3471 180.689 24.4423C180.335 24.7065 179.908 24.8542 179.467 24.8653C179.09 24.8154 178.724 24.7025 178.385 24.5313C177.823 24.298 177.493 24.169 177.395 24.1443C176.437 24.211 175.894 23.3343 175.766 21.5143C175.739 20.5883 175.771 19.6615 175.86 18.7393C175.951 17.754 176.061 16.928 176.188 16.2613C176.315 15.5947 176.515 14.666 176.787 13.4753C177.056 12.2853 177.25 11.3813 177.367 10.7633C177.408 10.3063 177.472 9.85168 177.56 9.40134L177.706 8.04334C177.703 8.01134 177.706 7.93101 177.713 7.80234C177.72 7.67367 177.728 7.56067 177.737 7.46334C177.749 7.36125 177.793 7.26562 177.863 7.19034C177.894 7.15104 177.932 7.11844 177.976 7.09454C178.02 7.07064 178.068 7.05594 178.118 7.05134C179.523 6.95334 180.237 7.08001 180.262 7.43134L180.409 7.46834C180.544 7.4928 180.676 7.53204 180.803 7.58534C180.858 7.60355 180.91 7.63267 180.954 7.67096C180.998 7.70926 181.033 7.75597 181.059 7.80834C181.219 8.11493 181.293 8.45911 181.273 8.80434C181.329 9.4293 181.325 10.0581 181.261 10.6823C181.014 12.8884 180.638 15.0781 180.136 17.2403C179.692 18.993 179.381 20.7768 179.206 22.5763C179.204 22.5903 179.206 22.6044 179.211 22.6176C179.216 22.6307 179.224 22.6424 179.235 22.6516C179.245 22.6608 179.258 22.6672 179.272 22.6703C179.285 22.6734 179.299 22.6731 179.313 22.6693C179.38 22.6647 179.414 22.6783 179.416 22.7103C179.723 22.4963 180.49 20.7417 181.719 17.4463C182.534 15.4393 183.218 13.3813 183.766 11.2853C183.644 11.0002 183.573 10.6953 183.558 10.3853C183.478 9.23534 183.87 8.63001 184.735 8.56934C184.946 8.602 185.148 8.67792 185.328 8.79234C185.486 8.8859 185.653 8.96297 185.826 9.02234C186.054 9.07301 186.189 9.40034 186.232 10.0043C186.261 10.4779 186.213 10.9531 186.09 11.4113C187.204 12.2281 188.523 12.7188 189.9 12.8283C189.941 12.8275 189.982 12.8328 190.021 12.8443C190.067 12.8552 190.11 12.8768 190.146 12.9073L190.063 13.1543C189.975 13.3303 189.899 13.5124 189.837 13.6993C189.77 13.8967 189.724 14.0443 189.699 14.1423C189.646 14.3383 189.461 14.4477 189.144 14.4703C188.838 14.4954 188.53 14.4833 188.227 14.4343C187.256 14.2299 186.34 13.8178 185.543 13.2263L185.46 13.4733C185.44 13.5944 185.4 13.7111 185.34 13.8183C185.28 13.9183 185.235 13.9697 185.206 13.9723C185.174 13.993 185.148 14.0229 185.133 14.0582C185.117 14.0935 185.113 14.1325 185.12 14.1703L185.075 14.2223C185.112 14.2168 185.147 14.2038 185.179 14.1842C185.211 14.1646 185.238 14.1388 185.26 14.1083L185.143 14.5023L184.944 14.4153C185.143 14.0175 185.26 13.584 185.288 13.1403C185.288 13.0879 185.267 13.0376 185.23 13.0003L184.684 14.8193C184.591 14.858 184.545 14.8947 184.547 14.9293C184.529 15.338 184.426 15.7385 184.245 16.1053L184.158 16.3043L184.135 15.9683C184.039 15.975 183.996 16.0423 184.005 16.1703C183.938 16.175 183.909 16.2413 183.918 16.3693C183.92 16.4013 183.957 16.4467 184.028 16.5053C184.039 16.6653 184.012 16.7477 183.945 16.7523C183.95 16.7892 183.963 16.8246 183.983 16.8564C184.002 16.8881 184.028 16.9157 184.058 16.9373L183.746 17.9693C183.938 17.5067 184.074 17.16 184.154 16.9293L184.59 15.5963L184.727 15.4863L184.71 15.2463L184.911 14.6143ZM176.188 20.6663L175.997 20.6793L175.952 20.7313L175.959 20.8313C175.97 20.9907 176.025 21.083 176.123 21.1083L176.526 21.3683C176.495 21.249 176.438 21.138 176.359 21.0433C176.27 20.9359 176.21 20.8075 176.184 20.6703L176.188 20.6663ZM183.096 17.6303C183.198 17.4898 183.284 17.3386 183.353 17.1793C183.414 17.0407 183.485 16.907 183.566 16.7793L183.343 17.0353C183.311 17.0373 183.268 17.1047 183.213 17.2373C183.182 17.3374 183.121 17.4256 183.038 17.4903C183.047 17.5419 183.067 17.591 183.096 17.6343V17.6303Z" fill="white"/>
</svg>
