<svg width="101" height="101" viewBox="0 0 101 101" fill="none" xmlns="http://www.w3.org/2000/svg">
<path d="M50.5 100.821C58.0702 100.821 64.3306 95.2134 65.3536 87.9252C65.4107 87.5183 65.9051 87.3135 66.2332 87.5609C72.1101 91.9911 80.5023 91.5297 85.8553 86.1767C91.2083 80.8237 91.6696 72.4314 87.2393 66.5546C86.9919 66.2264 87.1967 65.7321 87.6036 65.6749C94.8919 64.6521 100.5 58.3916 100.5 50.8213C100.5 43.2511 94.8921 36.9906 87.6039 35.9677C87.1969 35.9106 86.9922 35.4162 87.2395 35.0881C91.6698 29.2112 91.2084 20.819 85.8554 15.466C80.5024 10.113 72.1101 9.65163 66.2333 14.0819C65.9051 14.3293 65.4108 14.1245 65.3536 13.7176C64.3308 6.42931 58.0703 0.821289 50.5 0.821289C42.9298 0.821289 36.6693 6.42921 35.6464 13.7174C35.5893 14.1243 35.0949 14.3291 34.7668 14.0817C28.8899 9.6515 20.4977 10.1129 15.1447 15.4658C9.79168 20.8189 9.33034 29.2111 13.7607 35.088C14.008 35.4162 13.8033 35.9105 13.3963 35.9676C6.10803 36.9905 0.5 43.251 0.5 50.8213C0.5 58.3915 6.10791 64.6519 13.3961 65.6749C13.803 65.732 14.0078 66.2264 13.7604 66.5545C9.33022 72.4314 9.79159 80.8236 15.1446 86.1766C20.4976 91.5296 28.8899 91.9909 34.7667 87.5606C35.0949 87.3132 35.5892 87.518 35.6463 87.9249C36.6692 95.2132 42.9297 100.821 50.5 100.821Z" fill="#FFE926"/>
</svg>
