<svg width="30" height="31" viewBox="0 0 30 31" fill="none" xmlns="http://www.w3.org/2000/svg">
<path d="M28.75 3.88659C27.553 4.73094 26.2276 5.37673 24.825 5.79909C24.0722 4.93348 23.0717 4.31996 21.9588 4.0415C20.8459 3.76304 19.6744 3.83309 18.6026 4.24216C17.5308 4.65123 16.6106 5.37959 15.9662 6.32874C15.3219 7.27788 14.9846 8.40201 15 9.54909V10.7991C12.8033 10.8561 10.6266 10.3689 8.66376 9.3809C6.70093 8.39294 5.0129 6.93489 3.75 5.13659C3.75 5.13659 -1.25 16.3866 10 21.3866C7.42566 23.1341 4.35895 24.0103 1.25 23.8866C12.5 30.1366 26.25 23.8866 26.25 9.51159C26.2488 9.16341 26.2154 8.81609 26.15 8.47409C27.4258 7.21596 28.326 5.62748 28.75 3.88659Z" fill="#252525"/>
</svg>
