<svg width="20" height="20" viewBox="0 0 20 20" fill="none" xmlns="http://www.w3.org/2000/svg">
<g id="user">
<path id="Path 4" d="M4.58337 16.25C4.58337 16.25 7.50004 15 8.33337 14.1667C9.16671 13.3333 6.66671 13.3333 6.66671 9.16667C6.66671 5 10 5 10 5C10 5 13.3334 5 13.3334 9.16667C13.3334 13.3333 10.8334 13.3333 11.6667 14.1667C12.5 15 15.4167 16.25 15.4167 16.25" stroke="#722CF6" stroke-linecap="round"/>
<path id="Oval" fill-rule="evenodd" clip-rule="evenodd" d="M9.99996 18.3332C14.6023 18.3332 18.3333 14.6022 18.3333 9.99984C18.3333 5.39746 14.6023 1.6665 9.99996 1.6665C5.39759 1.6665 1.66663 5.39746 1.66663 9.99984C1.66663 14.6022 5.39759 18.3332 9.99996 18.3332Z" stroke="#722CF6"/>
</g>
</svg>
