<svg width="100" height="101" viewBox="0 0 100 101" fill="none" xmlns="http://www.w3.org/2000/svg">
<path d="M33.3335 53.0499L43.7502 63.4666L66.6668 40.5499" stroke="white" stroke-width="3" stroke-linecap="round"/>
<path d="M49.9992 92.6336C56.2508 92.6336 61.4306 88.0443 62.3531 82.0508C62.4156 81.6447 62.9118 81.4391 63.2432 81.6821C68.1335 85.2679 75.0413 84.8504 79.4619 80.4298C83.8825 76.0092 84.2999 69.1013 80.7141 64.211C80.4711 63.8796 80.6767 63.3834 81.0828 63.3209C87.0764 62.3985 91.6659 57.2187 91.6659 50.967C91.6659 44.7153 87.0765 39.5356 81.083 38.6131C80.6769 38.5505 80.4713 38.0544 80.7143 37.723C84.3001 32.8327 83.8827 25.9248 79.4621 21.5042C75.0414 17.0836 68.1335 16.6662 63.2432 20.252C62.9118 20.495 62.4156 20.2895 62.3531 19.8833C61.4307 13.8898 56.2509 9.30029 49.9992 9.30029C43.7475 9.30029 38.5678 13.8897 37.6453 19.8832C37.5828 20.2893 37.0866 20.4948 36.7552 20.2518C31.8649 16.6661 24.957 17.0835 20.5364 21.5041C16.1158 25.9247 15.6984 32.8326 19.2842 37.723C19.5272 38.0544 19.3217 38.5505 18.9155 38.613C12.922 39.5355 8.33252 44.7153 8.33252 50.967C8.33252 57.2186 12.9219 62.3983 18.9154 63.3209C19.3215 63.3834 19.527 63.8795 19.284 64.2109C15.6983 69.1013 16.1157 76.0091 20.5363 80.4297C24.9569 84.8503 31.8648 85.2677 36.7552 81.6819C37.0866 81.4389 37.5828 81.6444 37.6453 82.0506C38.5677 88.0441 43.7475 92.6336 49.9992 92.6336Z" stroke="white" stroke-width="3" stroke-linecap="round"/>
</svg>
