<svg width="30" height="31" viewBox="0 0 30 31" fill="none" xmlns="http://www.w3.org/2000/svg">
<path d="M28.3854 7.93367C28.5781 7.28263 28.3854 6.80347 27.4583 6.80347H24.3906C23.6094 6.80347 23.25 7.21492 23.0573 7.67326C23.0573 7.67326 21.4948 11.4805 19.2865 13.9493C18.5729 14.6628 18.2448 14.892 17.8542 14.892C17.6615 14.892 17.3646 14.6628 17.3646 14.0118V7.93367C17.3646 7.15242 17.1458 6.80347 16.5 6.80347H11.6771C11.1875 6.80347 10.8958 7.16805 10.8958 7.50659C10.8958 8.24618 12 8.41805 12.1146 10.5014V15.0222C12.1146 16.0118 11.9375 16.1941 11.5469 16.1941C10.5052 16.1941 7.97396 12.3712 6.47396 7.99618C6.17188 7.14722 5.875 6.80347 5.08854 6.80347H2.02083C1.14583 6.80347 0.96875 7.21492 0.96875 7.67326C0.96875 8.48576 2.01042 12.5222 5.81771 17.8556C8.35417 21.4962 11.9271 23.4701 15.1771 23.4701C17.1302 23.4701 17.3698 23.0326 17.3698 22.2774C17.3698 18.7983 17.1927 18.4701 18.1719 18.4701C18.625 18.4701 19.4062 18.6993 21.2292 20.4545C23.3125 22.5378 23.6562 23.4701 24.8229 23.4701H27.8906C28.7656 23.4701 29.2083 23.0326 28.9531 22.168C28.3698 20.3503 24.4271 16.6108 24.25 16.3608C23.7969 15.7774 23.9271 15.517 24.25 14.9962C24.2552 14.991 28 9.72013 28.3854 7.93367Z" fill="#252525"/>
</svg>
