<svg width="25" height="26" viewBox="0 0 25 26" fill="none" xmlns="http://www.w3.org/2000/svg">
<path d="M23.8566 7.19627C23.584 6.16979 22.7808 5.36137 21.761 5.08703C19.9124 4.5885 12.5001 4.5885 12.5001 4.5885C12.5001 4.5885 5.08773 4.5885 3.23917 5.08703C2.21933 5.36142 1.41612 6.16979 1.14351 7.19627C0.648193 9.05682 0.648193 12.9387 0.648193 12.9387C0.648193 12.9387 0.648193 16.8205 1.14351 18.6811C1.41612 19.7076 2.21933 20.4823 3.23917 20.7566C5.08773 21.2552 12.5001 21.2552 12.5001 21.2552C12.5001 21.2552 19.9124 21.2552 21.761 20.7566C22.7808 20.4823 23.584 19.7076 23.8566 18.6811C24.3519 16.8205 24.3519 12.9387 24.3519 12.9387C24.3519 12.9387 24.3519 9.05682 23.8566 7.19627ZM10.0758 16.4631V9.41424L16.2711 12.9388L10.0758 16.4631Z" fill="black"/>
</svg>
