<svg width="117" height="108" viewBox="0 0 117 108" fill="none" xmlns="http://www.w3.org/2000/svg">
<path d="M15.4846 107.26C7.20034 107.26 0.484619 100.544 0.484619 92.2597V59.3103C0.484619 42.9374 5.29255 29.1633 14.9084 17.9881C21.1717 10.5398 28.262 4.966 36.1791 1.26658C42.8253 -1.83892 49.6035 3.74242 49.6035 11.0783C49.6035 15.9397 46.4812 20.131 42.3536 22.6993C34.2232 27.7583 29.0921 35.374 26.9602 45.5464C25.6133 51.9734 31.147 57.3612 37.7136 57.3612C44.2802 57.3612 49.6035 62.6844 49.6035 69.2511V92.2597C49.6035 100.544 42.8878 107.26 34.6035 107.26H15.4846ZM82.2816 107.26C73.9973 107.26 67.2816 100.544 67.2816 92.2597V59.3103C67.2816 42.9374 72.0895 29.1633 81.7054 17.9881C87.9687 10.5398 95.0589 4.966 102.976 1.26657C109.622 -1.83892 116.4 3.74242 116.4 11.0783C116.4 15.9397 113.278 20.131 109.151 22.6993C101.02 27.7583 95.8891 35.374 93.7572 45.5464C92.4103 51.9734 97.944 57.3612 104.511 57.3612C111.077 57.3612 116.4 62.6844 116.4 69.2511V92.2597C116.4 100.544 109.685 107.26 101.4 107.26H82.2816Z" fill="white"/>
</svg>
